G04*
G04 #@! TF.GenerationSoftware,Altium Limited,Altium Designer,22.10.1 (41)*
G04*
G04 Layer_Color=13813960*
%FSLAX25Y25*%
%MOIN*%
G70*
G04*
G04 #@! TF.SameCoordinates,7A838745-C9D0-43D6-9584-31B5727D10FF*
G04*
G04*
G04 #@! TF.FilePolarity,Positive*
G04*
G01*
G75*
G36*
X6954Y107097D02*
X7081Y107080D01*
X7203Y107058D01*
X7314Y107031D01*
X7425Y106997D01*
X7520Y106953D01*
X7614Y106914D01*
X7697Y106870D01*
X7769Y106825D01*
X7830Y106786D01*
X7891Y106748D01*
X7936Y106709D01*
X7969Y106681D01*
X7997Y106659D01*
X8014Y106642D01*
X8019Y106637D01*
X8102Y106548D01*
X8175Y106453D01*
X8236Y106359D01*
X8291Y106265D01*
X8336Y106170D01*
X8374Y106076D01*
X8402Y105987D01*
X8430Y105898D01*
X8447Y105821D01*
X8463Y105743D01*
X8469Y105676D01*
X8480Y105621D01*
Y105577D01*
X8485Y105538D01*
Y105510D01*
X8480Y105416D01*
X8474Y105321D01*
X8458Y105232D01*
X8435Y105144D01*
X8386Y104983D01*
X8352Y104905D01*
X8325Y104838D01*
X8297Y104772D01*
X8263Y104716D01*
X8236Y104666D01*
X8213Y104622D01*
X8191Y104589D01*
X8180Y104566D01*
X8169Y104550D01*
X8163Y104544D01*
X9540Y104816D01*
Y106864D01*
X10139D01*
Y104317D01*
X7509Y103823D01*
X7425Y104411D01*
X7503Y104466D01*
X7575Y104527D01*
X7636Y104594D01*
X7692Y104650D01*
X7731Y104705D01*
X7764Y104750D01*
X7780Y104777D01*
X7786Y104788D01*
X7836Y104883D01*
X7869Y104977D01*
X7897Y105071D01*
X7914Y105160D01*
X7925Y105232D01*
X7930Y105294D01*
Y105343D01*
X7925Y105432D01*
X7919Y105516D01*
X7903Y105599D01*
X7880Y105671D01*
X7830Y105810D01*
X7803Y105865D01*
X7775Y105921D01*
X7742Y105971D01*
X7714Y106009D01*
X7686Y106048D01*
X7664Y106076D01*
X7642Y106098D01*
X7625Y106120D01*
X7620Y106126D01*
X7614Y106131D01*
X7553Y106187D01*
X7486Y106231D01*
X7420Y106276D01*
X7353Y106309D01*
X7209Y106365D01*
X7076Y106398D01*
X7009Y106409D01*
X6954Y106420D01*
X6898Y106426D01*
X6854Y106431D01*
X6815Y106437D01*
X6787D01*
X6770D01*
X6765D01*
X6659Y106431D01*
X6565Y106426D01*
X6471Y106409D01*
X6382Y106387D01*
X6304Y106365D01*
X6227Y106337D01*
X6160Y106309D01*
X6099Y106281D01*
X6043Y106248D01*
X5993Y106220D01*
X5955Y106193D01*
X5916Y106170D01*
X5888Y106148D01*
X5871Y106131D01*
X5860Y106126D01*
X5855Y106120D01*
X5794Y106059D01*
X5744Y105998D01*
X5699Y105937D01*
X5661Y105871D01*
X5627Y105804D01*
X5599Y105743D01*
X5561Y105621D01*
X5533Y105516D01*
X5527Y105471D01*
X5522Y105432D01*
X5516Y105399D01*
Y105354D01*
X5522Y105282D01*
X5527Y105216D01*
X5555Y105094D01*
X5594Y104983D01*
X5638Y104888D01*
X5677Y104811D01*
X5716Y104755D01*
X5733Y104733D01*
X5744Y104716D01*
X5755Y104711D01*
Y104705D01*
X5805Y104661D01*
X5855Y104616D01*
X5966Y104544D01*
X6088Y104483D01*
X6204Y104439D01*
X6310Y104411D01*
X6360Y104394D01*
X6399Y104389D01*
X6432Y104383D01*
X6454Y104378D01*
X6471Y104372D01*
X6476D01*
X6426Y103712D01*
X6310Y103728D01*
X6193Y103751D01*
X6088Y103778D01*
X5988Y103817D01*
X5899Y103856D01*
X5810Y103895D01*
X5733Y103939D01*
X5666Y103984D01*
X5599Y104028D01*
X5544Y104067D01*
X5500Y104106D01*
X5461Y104145D01*
X5427Y104172D01*
X5405Y104195D01*
X5394Y104206D01*
X5389Y104211D01*
X5322Y104300D01*
X5261Y104389D01*
X5211Y104483D01*
X5167Y104578D01*
X5128Y104672D01*
X5094Y104766D01*
X5067Y104860D01*
X5050Y104949D01*
X5033Y105033D01*
X5022Y105110D01*
X5011Y105177D01*
X5006Y105238D01*
X5000Y105288D01*
Y105354D01*
X5006Y105510D01*
X5028Y105654D01*
X5055Y105793D01*
X5100Y105921D01*
X5144Y106043D01*
X5194Y106154D01*
X5255Y106254D01*
X5311Y106342D01*
X5366Y106426D01*
X5427Y106498D01*
X5477Y106559D01*
X5527Y106609D01*
X5566Y106648D01*
X5594Y106675D01*
X5616Y106692D01*
X5622Y106698D01*
X5716Y106770D01*
X5816Y106831D01*
X5921Y106886D01*
X6021Y106931D01*
X6121Y106970D01*
X6221Y107003D01*
X6321Y107031D01*
X6410Y107053D01*
X6498Y107070D01*
X6576Y107080D01*
X6643Y107092D01*
X6704Y107097D01*
X6754Y107103D01*
X6787D01*
X6815D01*
X6820D01*
X6954Y107097D01*
D02*
G37*
G36*
X5688Y100509D02*
X5810Y100598D01*
X5866Y100643D01*
X5916Y100687D01*
X5960Y100726D01*
X5993Y100753D01*
X6016Y100776D01*
X6021Y100781D01*
X6055Y100815D01*
X6099Y100859D01*
X6143Y100909D01*
X6193Y100964D01*
X6304Y101081D01*
X6410Y101203D01*
X6510Y101320D01*
X6554Y101370D01*
X6593Y101420D01*
X6626Y101453D01*
X6648Y101486D01*
X6665Y101503D01*
X6671Y101508D01*
X6776Y101630D01*
X6876Y101747D01*
X6965Y101852D01*
X7053Y101947D01*
X7131Y102036D01*
X7209Y102113D01*
X7276Y102185D01*
X7337Y102252D01*
X7386Y102308D01*
X7436Y102352D01*
X7475Y102391D01*
X7509Y102424D01*
X7536Y102446D01*
X7553Y102469D01*
X7564Y102474D01*
X7570Y102480D01*
X7692Y102585D01*
X7803Y102668D01*
X7908Y102741D01*
X8003Y102802D01*
X8080Y102846D01*
X8141Y102879D01*
X8163Y102890D01*
X8180Y102896D01*
X8186Y102901D01*
X8191D01*
X8302Y102946D01*
X8413Y102974D01*
X8513Y102996D01*
X8608Y103012D01*
X8685Y103024D01*
X8746Y103029D01*
X8768D01*
X8785D01*
X8791D01*
X8796D01*
X8907Y103024D01*
X9013Y103012D01*
X9113Y102990D01*
X9212Y102962D01*
X9301Y102929D01*
X9385Y102890D01*
X9462Y102851D01*
X9529Y102813D01*
X9595Y102774D01*
X9651Y102735D01*
X9701Y102696D01*
X9740Y102663D01*
X9767Y102635D01*
X9795Y102613D01*
X9806Y102602D01*
X9812Y102596D01*
X9884Y102513D01*
X9945Y102424D01*
X10001Y102330D01*
X10051Y102230D01*
X10089Y102136D01*
X10123Y102036D01*
X10150Y101941D01*
X10173Y101847D01*
X10189Y101764D01*
X10200Y101680D01*
X10211Y101608D01*
X10217Y101547D01*
X10222Y101497D01*
Y101425D01*
X10217Y101292D01*
X10206Y101164D01*
X10189Y101048D01*
X10161Y100937D01*
X10134Y100831D01*
X10100Y100737D01*
X10067Y100648D01*
X10034Y100570D01*
X9995Y100498D01*
X9962Y100437D01*
X9928Y100382D01*
X9901Y100337D01*
X9873Y100304D01*
X9856Y100282D01*
X9845Y100265D01*
X9840Y100260D01*
X9767Y100182D01*
X9684Y100115D01*
X9601Y100054D01*
X9507Y99999D01*
X9418Y99954D01*
X9329Y99910D01*
X9235Y99877D01*
X9151Y99849D01*
X9068Y99821D01*
X8990Y99805D01*
X8918Y99788D01*
X8857Y99777D01*
X8807Y99771D01*
X8774Y99766D01*
X8752Y99760D01*
X8741D01*
X8674Y100404D01*
X8763Y100409D01*
X8846Y100415D01*
X8990Y100448D01*
X9124Y100493D01*
X9179Y100515D01*
X9229Y100543D01*
X9273Y100565D01*
X9312Y100593D01*
X9346Y100615D01*
X9373Y100631D01*
X9396Y100654D01*
X9412Y100665D01*
X9418Y100670D01*
X9423Y100676D01*
X9473Y100731D01*
X9518Y100787D01*
X9551Y100848D01*
X9584Y100909D01*
X9634Y101031D01*
X9668Y101148D01*
X9684Y101248D01*
X9695Y101292D01*
Y101331D01*
X9701Y101364D01*
Y101486D01*
X9690Y101564D01*
X9662Y101703D01*
X9618Y101819D01*
X9573Y101925D01*
X9523Y102002D01*
X9501Y102036D01*
X9479Y102063D01*
X9462Y102086D01*
X9451Y102102D01*
X9446Y102108D01*
X9440Y102113D01*
X9390Y102163D01*
X9340Y102202D01*
X9290Y102241D01*
X9235Y102269D01*
X9129Y102319D01*
X9029Y102352D01*
X8946Y102369D01*
X8907Y102380D01*
X8874D01*
X8852Y102385D01*
X8829D01*
X8818D01*
X8813D01*
X8746Y102380D01*
X8680Y102374D01*
X8546Y102341D01*
X8419Y102291D01*
X8302Y102235D01*
X8202Y102180D01*
X8163Y102158D01*
X8125Y102130D01*
X8097Y102113D01*
X8075Y102097D01*
X8064Y102091D01*
X8058Y102086D01*
X7980Y102024D01*
X7897Y101952D01*
X7808Y101869D01*
X7720Y101780D01*
X7536Y101597D01*
X7364Y101409D01*
X7281Y101320D01*
X7209Y101231D01*
X7142Y101153D01*
X7087Y101086D01*
X7037Y101031D01*
X7004Y100992D01*
X6976Y100964D01*
X6970Y100953D01*
X6887Y100853D01*
X6809Y100765D01*
X6737Y100676D01*
X6665Y100598D01*
X6598Y100521D01*
X6532Y100454D01*
X6476Y100393D01*
X6421Y100337D01*
X6371Y100287D01*
X6326Y100249D01*
X6288Y100210D01*
X6260Y100182D01*
X6232Y100154D01*
X6215Y100137D01*
X6204Y100132D01*
X6199Y100126D01*
X6077Y100027D01*
X5955Y99943D01*
X5838Y99871D01*
X5733Y99816D01*
X5644Y99771D01*
X5605Y99755D01*
X5577Y99738D01*
X5550Y99727D01*
X5533Y99721D01*
X5522Y99716D01*
X5516D01*
X5438Y99688D01*
X5361Y99671D01*
X5289Y99655D01*
X5222Y99649D01*
X5167Y99644D01*
X5122D01*
X5094D01*
X5083D01*
Y103035D01*
X5688D01*
Y100509D01*
D02*
G37*
G36*
X7253Y97274D02*
X6621D01*
Y99211D01*
X7253D01*
Y97274D01*
D02*
G37*
G36*
X10222Y95331D02*
X10095Y95259D01*
X9973Y95176D01*
X9856Y95081D01*
X9756Y94987D01*
X9662Y94904D01*
X9629Y94865D01*
X9595Y94837D01*
X9568Y94810D01*
X9551Y94787D01*
X9540Y94776D01*
X9534Y94771D01*
X9407Y94621D01*
X9296Y94460D01*
X9190Y94304D01*
X9101Y94160D01*
X9068Y94099D01*
X9035Y94038D01*
X9002Y93983D01*
X8979Y93938D01*
X8963Y93899D01*
X8946Y93872D01*
X8941Y93855D01*
X8935Y93849D01*
X8330D01*
X8374Y93960D01*
X8424Y94077D01*
X8480Y94188D01*
X8530Y94288D01*
X8580Y94377D01*
X8596Y94415D01*
X8619Y94449D01*
X8630Y94476D01*
X8641Y94493D01*
X8652Y94504D01*
Y94510D01*
X8735Y94643D01*
X8813Y94760D01*
X8885Y94865D01*
X8952Y94948D01*
X9007Y95020D01*
X9046Y95070D01*
X9074Y95098D01*
X9085Y95109D01*
X5083D01*
Y95736D01*
X10222D01*
Y95331D01*
D02*
G37*
G36*
Y91352D02*
X10095Y91280D01*
X9973Y91197D01*
X9856Y91102D01*
X9756Y91008D01*
X9662Y90925D01*
X9629Y90886D01*
X9595Y90858D01*
X9568Y90830D01*
X9551Y90808D01*
X9540Y90797D01*
X9534Y90791D01*
X9407Y90641D01*
X9296Y90481D01*
X9190Y90325D01*
X9101Y90181D01*
X9068Y90120D01*
X9035Y90059D01*
X9002Y90003D01*
X8979Y89959D01*
X8963Y89920D01*
X8946Y89892D01*
X8941Y89876D01*
X8935Y89870D01*
X8330D01*
X8374Y89981D01*
X8424Y90098D01*
X8480Y90209D01*
X8530Y90308D01*
X8580Y90397D01*
X8596Y90436D01*
X8619Y90469D01*
X8630Y90497D01*
X8641Y90514D01*
X8652Y90525D01*
Y90530D01*
X8735Y90664D01*
X8813Y90780D01*
X8885Y90886D01*
X8952Y90969D01*
X9007Y91041D01*
X9046Y91091D01*
X9074Y91119D01*
X9085Y91130D01*
X5083D01*
Y91757D01*
X10222D01*
Y91352D01*
D02*
G37*
G36*
X7253Y86934D02*
X6621D01*
Y88871D01*
X7253D01*
Y86934D01*
D02*
G37*
G36*
X5688Y83809D02*
X5810Y83898D01*
X5866Y83943D01*
X5916Y83987D01*
X5960Y84026D01*
X5993Y84054D01*
X6016Y84076D01*
X6021Y84081D01*
X6055Y84115D01*
X6099Y84159D01*
X6143Y84209D01*
X6193Y84264D01*
X6304Y84381D01*
X6410Y84503D01*
X6510Y84620D01*
X6554Y84670D01*
X6593Y84720D01*
X6626Y84753D01*
X6648Y84786D01*
X6665Y84803D01*
X6671Y84808D01*
X6776Y84930D01*
X6876Y85047D01*
X6965Y85153D01*
X7053Y85247D01*
X7131Y85336D01*
X7209Y85413D01*
X7276Y85486D01*
X7337Y85552D01*
X7386Y85608D01*
X7436Y85652D01*
X7475Y85691D01*
X7509Y85724D01*
X7536Y85746D01*
X7553Y85769D01*
X7564Y85774D01*
X7570Y85780D01*
X7692Y85885D01*
X7803Y85968D01*
X7908Y86041D01*
X8003Y86102D01*
X8080Y86146D01*
X8141Y86179D01*
X8163Y86190D01*
X8180Y86196D01*
X8186Y86201D01*
X8191D01*
X8302Y86246D01*
X8413Y86274D01*
X8513Y86296D01*
X8608Y86313D01*
X8685Y86324D01*
X8746Y86329D01*
X8768D01*
X8785D01*
X8791D01*
X8796D01*
X8907Y86324D01*
X9013Y86313D01*
X9113Y86290D01*
X9212Y86263D01*
X9301Y86229D01*
X9385Y86190D01*
X9462Y86151D01*
X9529Y86113D01*
X9595Y86074D01*
X9651Y86035D01*
X9701Y85996D01*
X9740Y85963D01*
X9767Y85935D01*
X9795Y85913D01*
X9806Y85902D01*
X9812Y85896D01*
X9884Y85813D01*
X9945Y85724D01*
X10001Y85630D01*
X10051Y85530D01*
X10089Y85436D01*
X10123Y85336D01*
X10150Y85241D01*
X10173Y85147D01*
X10189Y85064D01*
X10200Y84980D01*
X10211Y84908D01*
X10217Y84847D01*
X10222Y84797D01*
Y84725D01*
X10217Y84592D01*
X10206Y84464D01*
X10189Y84348D01*
X10161Y84237D01*
X10134Y84131D01*
X10100Y84037D01*
X10067Y83948D01*
X10034Y83871D01*
X9995Y83798D01*
X9962Y83737D01*
X9928Y83682D01*
X9901Y83637D01*
X9873Y83604D01*
X9856Y83582D01*
X9845Y83565D01*
X9840Y83560D01*
X9767Y83482D01*
X9684Y83415D01*
X9601Y83354D01*
X9507Y83299D01*
X9418Y83254D01*
X9329Y83210D01*
X9235Y83177D01*
X9151Y83149D01*
X9068Y83121D01*
X8990Y83104D01*
X8918Y83088D01*
X8857Y83077D01*
X8807Y83071D01*
X8774Y83066D01*
X8752Y83060D01*
X8741D01*
X8674Y83704D01*
X8763Y83710D01*
X8846Y83715D01*
X8990Y83748D01*
X9124Y83793D01*
X9179Y83815D01*
X9229Y83843D01*
X9273Y83865D01*
X9312Y83893D01*
X9346Y83915D01*
X9373Y83931D01*
X9396Y83954D01*
X9412Y83965D01*
X9418Y83970D01*
X9423Y83976D01*
X9473Y84031D01*
X9518Y84087D01*
X9551Y84148D01*
X9584Y84209D01*
X9634Y84331D01*
X9668Y84448D01*
X9684Y84548D01*
X9695Y84592D01*
Y84631D01*
X9701Y84664D01*
Y84786D01*
X9690Y84864D01*
X9662Y85003D01*
X9618Y85119D01*
X9573Y85225D01*
X9523Y85302D01*
X9501Y85336D01*
X9479Y85363D01*
X9462Y85386D01*
X9451Y85402D01*
X9446Y85408D01*
X9440Y85413D01*
X9390Y85463D01*
X9340Y85502D01*
X9290Y85541D01*
X9235Y85569D01*
X9129Y85619D01*
X9029Y85652D01*
X8946Y85669D01*
X8907Y85680D01*
X8874D01*
X8852Y85685D01*
X8829D01*
X8818D01*
X8813D01*
X8746Y85680D01*
X8680Y85674D01*
X8546Y85641D01*
X8419Y85591D01*
X8302Y85536D01*
X8202Y85480D01*
X8163Y85458D01*
X8125Y85430D01*
X8097Y85413D01*
X8075Y85397D01*
X8064Y85391D01*
X8058Y85386D01*
X7980Y85325D01*
X7897Y85252D01*
X7808Y85169D01*
X7720Y85080D01*
X7536Y84897D01*
X7364Y84708D01*
X7281Y84620D01*
X7209Y84531D01*
X7142Y84453D01*
X7087Y84387D01*
X7037Y84331D01*
X7004Y84292D01*
X6976Y84264D01*
X6970Y84253D01*
X6887Y84153D01*
X6809Y84065D01*
X6737Y83976D01*
X6665Y83898D01*
X6598Y83820D01*
X6532Y83754D01*
X6476Y83693D01*
X6421Y83637D01*
X6371Y83587D01*
X6326Y83549D01*
X6288Y83510D01*
X6260Y83482D01*
X6232Y83454D01*
X6215Y83438D01*
X6204Y83432D01*
X6199Y83426D01*
X6077Y83327D01*
X5955Y83243D01*
X5838Y83171D01*
X5733Y83116D01*
X5644Y83071D01*
X5605Y83055D01*
X5577Y83038D01*
X5550Y83027D01*
X5533Y83021D01*
X5522Y83016D01*
X5516D01*
X5438Y82988D01*
X5361Y82971D01*
X5289Y82955D01*
X5222Y82949D01*
X5167Y82944D01*
X5122D01*
X5094D01*
X5083D01*
Y86335D01*
X5688D01*
Y83809D01*
D02*
G37*
G36*
Y79830D02*
X5810Y79919D01*
X5866Y79963D01*
X5916Y80008D01*
X5960Y80046D01*
X5993Y80074D01*
X6016Y80097D01*
X6021Y80102D01*
X6055Y80135D01*
X6099Y80180D01*
X6143Y80230D01*
X6193Y80285D01*
X6304Y80402D01*
X6410Y80524D01*
X6510Y80640D01*
X6554Y80690D01*
X6593Y80740D01*
X6626Y80774D01*
X6648Y80807D01*
X6665Y80823D01*
X6671Y80829D01*
X6776Y80951D01*
X6876Y81068D01*
X6965Y81173D01*
X7053Y81267D01*
X7131Y81356D01*
X7209Y81434D01*
X7276Y81506D01*
X7337Y81573D01*
X7386Y81628D01*
X7436Y81673D01*
X7475Y81712D01*
X7509Y81745D01*
X7536Y81767D01*
X7553Y81789D01*
X7564Y81795D01*
X7570Y81800D01*
X7692Y81906D01*
X7803Y81989D01*
X7908Y82061D01*
X8003Y82122D01*
X8080Y82167D01*
X8141Y82200D01*
X8163Y82211D01*
X8180Y82217D01*
X8186Y82222D01*
X8191D01*
X8302Y82266D01*
X8413Y82294D01*
X8513Y82316D01*
X8608Y82333D01*
X8685Y82344D01*
X8746Y82350D01*
X8768D01*
X8785D01*
X8791D01*
X8796D01*
X8907Y82344D01*
X9013Y82333D01*
X9113Y82311D01*
X9212Y82283D01*
X9301Y82250D01*
X9385Y82211D01*
X9462Y82172D01*
X9529Y82133D01*
X9595Y82094D01*
X9651Y82056D01*
X9701Y82017D01*
X9740Y81984D01*
X9767Y81956D01*
X9795Y81933D01*
X9806Y81922D01*
X9812Y81917D01*
X9884Y81834D01*
X9945Y81745D01*
X10001Y81651D01*
X10051Y81551D01*
X10089Y81456D01*
X10123Y81356D01*
X10150Y81262D01*
X10173Y81168D01*
X10189Y81084D01*
X10200Y81001D01*
X10211Y80929D01*
X10217Y80868D01*
X10222Y80818D01*
Y80746D01*
X10217Y80613D01*
X10206Y80485D01*
X10189Y80368D01*
X10161Y80257D01*
X10134Y80152D01*
X10100Y80058D01*
X10067Y79969D01*
X10034Y79891D01*
X9995Y79819D01*
X9962Y79758D01*
X9928Y79702D01*
X9901Y79658D01*
X9873Y79625D01*
X9856Y79602D01*
X9845Y79586D01*
X9840Y79580D01*
X9767Y79503D01*
X9684Y79436D01*
X9601Y79375D01*
X9507Y79319D01*
X9418Y79275D01*
X9329Y79231D01*
X9235Y79197D01*
X9151Y79170D01*
X9068Y79142D01*
X8990Y79125D01*
X8918Y79109D01*
X8857Y79097D01*
X8807Y79092D01*
X8774Y79086D01*
X8752Y79081D01*
X8741D01*
X8674Y79725D01*
X8763Y79730D01*
X8846Y79736D01*
X8990Y79769D01*
X9124Y79813D01*
X9179Y79836D01*
X9229Y79863D01*
X9273Y79886D01*
X9312Y79913D01*
X9346Y79935D01*
X9373Y79952D01*
X9396Y79974D01*
X9412Y79985D01*
X9418Y79991D01*
X9423Y79997D01*
X9473Y80052D01*
X9518Y80108D01*
X9551Y80169D01*
X9584Y80230D01*
X9634Y80352D01*
X9668Y80468D01*
X9684Y80568D01*
X9695Y80613D01*
Y80651D01*
X9701Y80685D01*
Y80807D01*
X9690Y80885D01*
X9662Y81023D01*
X9618Y81140D01*
X9573Y81245D01*
X9523Y81323D01*
X9501Y81356D01*
X9479Y81384D01*
X9462Y81406D01*
X9451Y81423D01*
X9446Y81428D01*
X9440Y81434D01*
X9390Y81484D01*
X9340Y81523D01*
X9290Y81562D01*
X9235Y81589D01*
X9129Y81639D01*
X9029Y81673D01*
X8946Y81689D01*
X8907Y81700D01*
X8874D01*
X8852Y81706D01*
X8829D01*
X8818D01*
X8813D01*
X8746Y81700D01*
X8680Y81695D01*
X8546Y81661D01*
X8419Y81612D01*
X8302Y81556D01*
X8202Y81501D01*
X8163Y81478D01*
X8125Y81451D01*
X8097Y81434D01*
X8075Y81417D01*
X8064Y81412D01*
X8058Y81406D01*
X7980Y81345D01*
X7897Y81273D01*
X7808Y81190D01*
X7720Y81101D01*
X7536Y80918D01*
X7364Y80729D01*
X7281Y80640D01*
X7209Y80551D01*
X7142Y80474D01*
X7087Y80407D01*
X7037Y80352D01*
X7004Y80313D01*
X6976Y80285D01*
X6970Y80274D01*
X6887Y80174D01*
X6809Y80085D01*
X6737Y79997D01*
X6665Y79919D01*
X6598Y79841D01*
X6532Y79774D01*
X6476Y79713D01*
X6421Y79658D01*
X6371Y79608D01*
X6326Y79569D01*
X6288Y79530D01*
X6260Y79503D01*
X6232Y79475D01*
X6215Y79458D01*
X6204Y79453D01*
X6199Y79447D01*
X6077Y79347D01*
X5955Y79264D01*
X5838Y79192D01*
X5733Y79136D01*
X5644Y79092D01*
X5605Y79075D01*
X5577Y79059D01*
X5550Y79048D01*
X5533Y79042D01*
X5522Y79036D01*
X5516D01*
X5438Y79009D01*
X5361Y78992D01*
X5289Y78975D01*
X5222Y78970D01*
X5167Y78964D01*
X5122D01*
X5094D01*
X5083D01*
Y82355D01*
X5688D01*
Y79830D01*
D02*
G37*
G36*
X7880Y78404D02*
X8003Y78398D01*
X8119Y78393D01*
X8225Y78382D01*
X8325Y78370D01*
X8413Y78359D01*
X8496Y78354D01*
X8569Y78343D01*
X8630Y78332D01*
X8685Y78320D01*
X8730Y78309D01*
X8768Y78304D01*
X8791Y78298D01*
X8807Y78293D01*
X8813D01*
X8974Y78248D01*
X9124Y78193D01*
X9251Y78143D01*
X9362Y78093D01*
X9407Y78065D01*
X9451Y78048D01*
X9490Y78026D01*
X9518Y78010D01*
X9540Y77993D01*
X9557Y77987D01*
X9568Y77976D01*
X9573D01*
X9684Y77899D01*
X9784Y77810D01*
X9867Y77727D01*
X9934Y77643D01*
X9989Y77571D01*
X10023Y77516D01*
X10039Y77494D01*
X10051Y77477D01*
X10056Y77466D01*
Y77460D01*
X10112Y77338D01*
X10150Y77216D01*
X10184Y77094D01*
X10200Y76983D01*
X10211Y76883D01*
X10217Y76844D01*
X10222Y76805D01*
Y76739D01*
X10217Y76639D01*
X10211Y76539D01*
X10195Y76445D01*
X10178Y76356D01*
X10156Y76278D01*
X10128Y76200D01*
X10100Y76128D01*
X10073Y76067D01*
X10045Y76006D01*
X10017Y75956D01*
X9995Y75912D01*
X9967Y75878D01*
X9951Y75851D01*
X9934Y75828D01*
X9928Y75817D01*
X9923Y75812D01*
X9862Y75745D01*
X9801Y75684D01*
X9662Y75573D01*
X9523Y75473D01*
X9385Y75396D01*
X9318Y75362D01*
X9262Y75335D01*
X9207Y75312D01*
X9162Y75290D01*
X9124Y75279D01*
X9090Y75268D01*
X9074Y75257D01*
X9068D01*
X8963Y75224D01*
X8846Y75196D01*
X8608Y75151D01*
X8363Y75118D01*
X8247Y75107D01*
X8130Y75096D01*
X8025Y75090D01*
X7925Y75085D01*
X7836Y75079D01*
X7758D01*
X7697Y75074D01*
X7647D01*
X7620D01*
X7609D01*
X7348Y75079D01*
X7103Y75096D01*
X6881Y75118D01*
X6676Y75151D01*
X6487Y75190D01*
X6315Y75235D01*
X6165Y75279D01*
X6027Y75329D01*
X5910Y75373D01*
X5805Y75418D01*
X5722Y75462D01*
X5649Y75501D01*
X5594Y75534D01*
X5555Y75557D01*
X5533Y75573D01*
X5527Y75579D01*
X5433Y75662D01*
X5355Y75751D01*
X5283Y75845D01*
X5222Y75940D01*
X5172Y76034D01*
X5128Y76134D01*
X5094Y76228D01*
X5067Y76317D01*
X5044Y76406D01*
X5028Y76483D01*
X5017Y76556D01*
X5011Y76617D01*
X5006Y76666D01*
X5000Y76705D01*
Y76739D01*
X5006Y76844D01*
X5011Y76938D01*
X5028Y77033D01*
X5044Y77122D01*
X5072Y77205D01*
X5094Y77277D01*
X5122Y77349D01*
X5150Y77410D01*
X5178Y77471D01*
X5205Y77521D01*
X5233Y77566D01*
X5255Y77599D01*
X5272Y77627D01*
X5289Y77649D01*
X5294Y77660D01*
X5300Y77666D01*
X5361Y77732D01*
X5422Y77799D01*
X5561Y77910D01*
X5699Y78004D01*
X5838Y78082D01*
X5905Y78115D01*
X5966Y78143D01*
X6016Y78165D01*
X6066Y78187D01*
X6099Y78204D01*
X6132Y78210D01*
X6149Y78221D01*
X6154D01*
X6260Y78254D01*
X6376Y78282D01*
X6615Y78332D01*
X6859Y78365D01*
X6976Y78376D01*
X7092Y78387D01*
X7198Y78393D01*
X7298Y78398D01*
X7381Y78404D01*
X7459Y78409D01*
X7520D01*
X7570D01*
X7597D01*
X7609D01*
X7747D01*
X7880Y78404D01*
D02*
G37*
G36*
X5688Y71871D02*
X5810Y71960D01*
X5866Y72004D01*
X5916Y72049D01*
X5960Y72088D01*
X5993Y72115D01*
X6016Y72138D01*
X6021Y72143D01*
X6055Y72177D01*
X6099Y72221D01*
X6143Y72271D01*
X6193Y72326D01*
X6304Y72443D01*
X6410Y72565D01*
X6510Y72682D01*
X6554Y72732D01*
X6593Y72782D01*
X6626Y72815D01*
X6648Y72848D01*
X6665Y72865D01*
X6671Y72870D01*
X6776Y72992D01*
X6876Y73109D01*
X6965Y73214D01*
X7053Y73309D01*
X7131Y73398D01*
X7209Y73475D01*
X7276Y73548D01*
X7337Y73614D01*
X7386Y73670D01*
X7436Y73714D01*
X7475Y73753D01*
X7509Y73786D01*
X7536Y73808D01*
X7553Y73830D01*
X7564Y73836D01*
X7570Y73842D01*
X7692Y73947D01*
X7803Y74030D01*
X7908Y74102D01*
X8003Y74164D01*
X8080Y74208D01*
X8141Y74241D01*
X8163Y74252D01*
X8180Y74258D01*
X8186Y74263D01*
X8191D01*
X8302Y74308D01*
X8413Y74336D01*
X8513Y74358D01*
X8608Y74374D01*
X8685Y74385D01*
X8746Y74391D01*
X8768D01*
X8785D01*
X8791D01*
X8796D01*
X8907Y74385D01*
X9013Y74374D01*
X9113Y74352D01*
X9212Y74325D01*
X9301Y74291D01*
X9385Y74252D01*
X9462Y74213D01*
X9529Y74175D01*
X9595Y74136D01*
X9651Y74097D01*
X9701Y74058D01*
X9740Y74025D01*
X9767Y73997D01*
X9795Y73975D01*
X9806Y73964D01*
X9812Y73958D01*
X9884Y73875D01*
X9945Y73786D01*
X10001Y73692D01*
X10051Y73592D01*
X10089Y73497D01*
X10123Y73398D01*
X10150Y73303D01*
X10173Y73209D01*
X10189Y73126D01*
X10200Y73042D01*
X10211Y72970D01*
X10217Y72909D01*
X10222Y72859D01*
Y72787D01*
X10217Y72654D01*
X10206Y72526D01*
X10189Y72410D01*
X10161Y72299D01*
X10134Y72193D01*
X10100Y72099D01*
X10067Y72010D01*
X10034Y71932D01*
X9995Y71860D01*
X9962Y71799D01*
X9928Y71744D01*
X9901Y71699D01*
X9873Y71666D01*
X9856Y71644D01*
X9845Y71627D01*
X9840Y71622D01*
X9767Y71544D01*
X9684Y71477D01*
X9601Y71416D01*
X9507Y71361D01*
X9418Y71316D01*
X9329Y71272D01*
X9235Y71239D01*
X9151Y71211D01*
X9068Y71183D01*
X8990Y71166D01*
X8918Y71150D01*
X8857Y71139D01*
X8807Y71133D01*
X8774Y71128D01*
X8752Y71122D01*
X8741D01*
X8674Y71766D01*
X8763Y71772D01*
X8846Y71777D01*
X8990Y71810D01*
X9124Y71855D01*
X9179Y71877D01*
X9229Y71905D01*
X9273Y71927D01*
X9312Y71955D01*
X9346Y71977D01*
X9373Y71993D01*
X9396Y72016D01*
X9412Y72027D01*
X9418Y72032D01*
X9423Y72038D01*
X9473Y72093D01*
X9518Y72149D01*
X9551Y72210D01*
X9584Y72271D01*
X9634Y72393D01*
X9668Y72510D01*
X9684Y72610D01*
X9695Y72654D01*
Y72693D01*
X9701Y72726D01*
Y72848D01*
X9690Y72926D01*
X9662Y73065D01*
X9618Y73181D01*
X9573Y73287D01*
X9523Y73364D01*
X9501Y73398D01*
X9479Y73425D01*
X9462Y73448D01*
X9451Y73464D01*
X9446Y73470D01*
X9440Y73475D01*
X9390Y73525D01*
X9340Y73564D01*
X9290Y73603D01*
X9235Y73631D01*
X9129Y73681D01*
X9029Y73714D01*
X8946Y73731D01*
X8907Y73742D01*
X8874D01*
X8852Y73747D01*
X8829D01*
X8818D01*
X8813D01*
X8746Y73742D01*
X8680Y73736D01*
X8546Y73703D01*
X8419Y73653D01*
X8302Y73597D01*
X8202Y73542D01*
X8163Y73520D01*
X8125Y73492D01*
X8097Y73475D01*
X8075Y73459D01*
X8064Y73453D01*
X8058Y73448D01*
X7980Y73387D01*
X7897Y73314D01*
X7808Y73231D01*
X7720Y73142D01*
X7536Y72959D01*
X7364Y72771D01*
X7281Y72682D01*
X7209Y72593D01*
X7142Y72515D01*
X7087Y72449D01*
X7037Y72393D01*
X7004Y72354D01*
X6976Y72326D01*
X6970Y72315D01*
X6887Y72215D01*
X6809Y72127D01*
X6737Y72038D01*
X6665Y71960D01*
X6598Y71882D01*
X6532Y71816D01*
X6476Y71755D01*
X6421Y71699D01*
X6371Y71649D01*
X6326Y71610D01*
X6288Y71572D01*
X6260Y71544D01*
X6232Y71516D01*
X6215Y71500D01*
X6204Y71494D01*
X6199Y71488D01*
X6077Y71389D01*
X5955Y71305D01*
X5838Y71233D01*
X5733Y71178D01*
X5644Y71133D01*
X5605Y71117D01*
X5577Y71100D01*
X5550Y71089D01*
X5533Y71083D01*
X5522Y71078D01*
X5516D01*
X5438Y71050D01*
X5361Y71033D01*
X5289Y71017D01*
X5222Y71011D01*
X5167Y71006D01*
X5122D01*
X5094D01*
X5083D01*
Y74397D01*
X5688D01*
Y71871D01*
D02*
G37*
G36*
X19583Y230435D02*
X19617Y230157D01*
X19721Y229949D01*
X19860Y229810D01*
X19999Y229706D01*
X20138Y229636D01*
X20277Y229602D01*
X20381D01*
X20416D01*
X26422D01*
X26527Y229567D01*
X26561Y229497D01*
X26596Y229428D01*
Y229324D01*
X26457Y229011D01*
X26353Y228699D01*
X26249Y228456D01*
X26145Y228247D01*
X26006Y227900D01*
X25867Y227692D01*
X25763Y227553D01*
X25693Y227484D01*
X25659Y227449D01*
X25554D01*
X25381Y227518D01*
X25485Y228178D01*
X25450Y228282D01*
X25311Y228352D01*
X25172Y228386D01*
X24964Y228421D01*
X24791Y228456D01*
X24617D01*
X24478D01*
X24443D01*
X20242D01*
X20103D01*
X19964Y228421D01*
X19895Y228386D01*
X19860D01*
X19374Y227518D01*
X19270Y227553D01*
X19235Y227623D01*
X19201Y227692D01*
Y230331D01*
X19235Y230470D01*
X19305Y230504D01*
X19340Y230539D01*
X19374D01*
X19583Y230435D01*
D02*
G37*
G36*
X31005Y227345D02*
X30936Y227206D01*
X30832Y227136D01*
X30728Y226998D01*
X30658Y226963D01*
X30623D01*
X30450D01*
X30346Y226998D01*
X30242Y227136D01*
X30137Y227310D01*
X30068Y227484D01*
X29999Y227692D01*
X29929Y227831D01*
X29894Y227970D01*
Y228005D01*
X29790D01*
Y189674D01*
X29755Y189569D01*
X29721Y189535D01*
X29651Y189500D01*
X29617D01*
X29026D01*
X28922Y189535D01*
X28888Y189604D01*
X28853Y189639D01*
Y228109D01*
X28749D01*
X28714Y227935D01*
X28679Y227761D01*
X28471Y227379D01*
X28367Y227206D01*
X28297Y227102D01*
X28228Y226998D01*
X28193Y226963D01*
X27915Y226998D01*
X27742Y227102D01*
X27672Y227206D01*
X27638Y227241D01*
Y227449D01*
X27881Y228109D01*
X28089Y228664D01*
X28297Y229185D01*
X28471Y229602D01*
X28610Y229983D01*
X28749Y230296D01*
X28888Y230574D01*
X28992Y230782D01*
X29061Y230956D01*
X29131Y231095D01*
X29235Y231268D01*
X29304Y231372D01*
X29408D01*
X31005Y227345D01*
D02*
G37*
G36*
X22291Y225921D02*
X22360Y225852D01*
X22395Y225782D01*
Y220401D01*
X22360Y220331D01*
X22291Y220262D01*
X22221Y220227D01*
X22187D01*
X21909D01*
X21805Y220262D01*
X21770Y220331D01*
X21735Y220366D01*
Y225748D01*
X21770Y225887D01*
X21839Y225921D01*
X21874Y225956D01*
X21909D01*
X22187D01*
X22291Y225921D01*
D02*
G37*
G36*
X11041Y224914D02*
X11111Y224810D01*
X11146Y224741D01*
Y224081D01*
X10764Y224046D01*
X10417Y223942D01*
X10139Y223769D01*
X9896Y223630D01*
X9687Y223456D01*
X9549Y223283D01*
X9479Y223178D01*
X9444Y223144D01*
Y222484D01*
X9514Y222310D01*
X9687Y222102D01*
X9965Y221929D01*
X10347Y221755D01*
X10764Y221547D01*
X11250Y221373D01*
X12326Y221060D01*
X13368Y220748D01*
X13854Y220644D01*
X14270Y220540D01*
X14652Y220436D01*
X14930Y220401D01*
X15104Y220331D01*
X15173D01*
X15902Y220227D01*
X16562Y220088D01*
X17222Y219949D01*
X17812Y219811D01*
X18333Y219672D01*
X18853Y219567D01*
X19340Y219429D01*
X19756Y219290D01*
X20173Y219151D01*
X20555Y219012D01*
X21180Y218734D01*
X21700Y218457D01*
X22117Y218213D01*
X22464Y217970D01*
X22707Y217727D01*
X22881Y217554D01*
X22985Y217380D01*
X23089Y217241D01*
X23124Y217137D01*
Y216200D01*
X22985Y215818D01*
X22777Y215505D01*
X22569Y215228D01*
X22291Y214984D01*
X22013Y214811D01*
X21700Y214637D01*
X21110Y214394D01*
X20520Y214221D01*
X20277Y214186D01*
X20034Y214151D01*
X19860Y214117D01*
X19721D01*
X19617D01*
X19583D01*
X19478Y214151D01*
X19409Y214221D01*
X19374Y214290D01*
Y214880D01*
X19409Y214984D01*
X19513Y215019D01*
X19617Y215054D01*
X19652D01*
X19930Y215158D01*
X20173Y215262D01*
X20520Y215436D01*
X20798Y215609D01*
X21006Y215783D01*
X21110Y215887D01*
X21145Y215991D01*
X21180Y216061D01*
Y216582D01*
X21145Y216790D01*
X21041Y216998D01*
X20902Y217172D01*
X20694Y217345D01*
X20485Y217484D01*
X20242Y217658D01*
X19687Y217901D01*
X19131Y218109D01*
X18853Y218179D01*
X18645Y218248D01*
X18437Y218283D01*
X18298Y218318D01*
X18194Y218352D01*
X18159D01*
X8055Y213561D01*
X7951D01*
X7847Y213596D01*
X7812Y213665D01*
X7778Y213735D01*
Y215818D01*
X8819Y216339D01*
X9757Y216825D01*
X10555Y217241D01*
X11285Y217588D01*
X11909Y217901D01*
X12465Y218179D01*
X12951Y218387D01*
X13333Y218561D01*
X13645Y218734D01*
X13923Y218838D01*
X14131Y218943D01*
X14270Y218977D01*
X14409Y219047D01*
X14479Y219081D01*
X14513D01*
Y219186D01*
X14236Y219220D01*
X13993Y219290D01*
X13576Y219359D01*
X13298Y219429D01*
X13125Y219498D01*
X12986Y219533D01*
X12951D01*
X12916Y219567D01*
X11979Y219741D01*
X11146Y219915D01*
X10417Y220123D01*
X9792Y220331D01*
X9271Y220574D01*
X8819Y220783D01*
X8472Y221026D01*
X8194Y221269D01*
X7951Y221477D01*
X7778Y221685D01*
X7674Y221894D01*
X7569Y222033D01*
X7535Y222171D01*
X7500Y222276D01*
Y223213D01*
X7604Y223526D01*
X7743Y223803D01*
X7951Y224046D01*
X8160Y224255D01*
X8681Y224567D01*
X9236Y224810D01*
X9757Y224914D01*
X10243Y224984D01*
X10417Y225019D01*
X10555D01*
X10625D01*
X10660D01*
X10868D01*
X11041Y224914D01*
D02*
G37*
G36*
X17812Y212693D02*
X17847Y212658D01*
X17881Y212589D01*
Y204569D01*
X17847Y204187D01*
X17742Y203839D01*
X17604Y203492D01*
X17395Y203214D01*
X17152Y202937D01*
X16909Y202694D01*
X16354Y202277D01*
X15763Y201964D01*
X15520Y201860D01*
X15277Y201756D01*
X15069Y201687D01*
X14930Y201617D01*
X14826Y201583D01*
X14791D01*
X14618Y201617D01*
X14548Y201687D01*
X14513Y201721D01*
Y202416D01*
X14791Y202589D01*
X14999Y202798D01*
X15381Y203180D01*
X15659Y203562D01*
X15833Y203909D01*
X15937Y204221D01*
X15972Y204464D01*
X16006Y204603D01*
Y204742D01*
X14999Y204673D01*
X14062Y204569D01*
X13263Y204464D01*
X12604Y204360D01*
X12291Y204325D01*
X12048Y204256D01*
X11840Y204221D01*
X11666Y204187D01*
X11493Y204152D01*
X11389D01*
X11354Y204117D01*
X11319D01*
X10903Y203874D01*
X10555Y203631D01*
X10243Y203457D01*
X9965Y203284D01*
X9722Y203145D01*
X9514Y203041D01*
X9201Y202867D01*
X8993Y202763D01*
X8854Y202728D01*
X8819Y202694D01*
X8785D01*
X8507D01*
X8160Y202728D01*
X7917Y202833D01*
X7743Y202971D01*
X7639Y203110D01*
X7569Y203249D01*
X7500Y203388D01*
Y204117D01*
X7535Y204256D01*
X7604Y204430D01*
X7708Y204569D01*
X7882Y204673D01*
X8055Y204812D01*
X8299Y204916D01*
X8819Y205159D01*
X9479Y205332D01*
X10208Y205506D01*
X10972Y205645D01*
X11771Y205784D01*
X12534Y205888D01*
X13333Y205957D01*
X14027Y206027D01*
X14687Y206096D01*
X15208Y206131D01*
X15451D01*
X15659D01*
X15798Y206166D01*
X15902D01*
X15972D01*
X16006D01*
Y208422D01*
X15034Y208318D01*
X14131Y208249D01*
X13263Y208214D01*
X12500Y208179D01*
X12152D01*
X11840Y208145D01*
X11597D01*
X11354D01*
X11180D01*
X11041D01*
X10972D01*
X10937D01*
X10347Y208179D01*
X9792Y208214D01*
X9340Y208318D01*
X8958Y208422D01*
X8611Y208596D01*
X8333Y208735D01*
X8125Y208909D01*
X7917Y209082D01*
X7778Y209256D01*
X7674Y209429D01*
X7569Y209742D01*
X7500Y209950D01*
Y210575D01*
X7535Y210888D01*
X7639Y211165D01*
X7778Y211408D01*
X7951Y211617D01*
X8403Y211964D01*
X8958Y212242D01*
X9479Y212415D01*
X9930Y212554D01*
X10104Y212589D01*
X10243Y212624D01*
X10347D01*
X10382D01*
X10660D01*
X10764Y212589D01*
X10833Y212554D01*
X10868Y212485D01*
Y211964D01*
X10486Y211755D01*
X10208Y211547D01*
X10000Y211408D01*
X9861Y211304D01*
X9792Y211235D01*
X9757Y211165D01*
X9722Y211131D01*
Y210957D01*
X9792Y210645D01*
X9930Y210401D01*
X10139Y210263D01*
X10382Y210124D01*
X10625Y210054D01*
X10833Y210019D01*
X10972D01*
X11041D01*
X15069D01*
X16006Y210089D01*
Y212554D01*
X16041Y212658D01*
X16111Y212693D01*
X16180Y212728D01*
X16215D01*
X17708D01*
X17812Y212693D01*
D02*
G37*
G36*
X10764Y200229D02*
X10833Y200194D01*
X10868Y200124D01*
Y199499D01*
X10764Y199326D01*
X10590Y199291D01*
X10417Y199187D01*
X10278Y199013D01*
X10173Y198770D01*
X10069Y198493D01*
X9965Y198180D01*
X9861Y197555D01*
X9792Y196895D01*
X9757Y196583D01*
Y196305D01*
X9722Y196097D01*
Y193527D01*
X10104Y193805D01*
X11076Y194812D01*
X12014Y195680D01*
X12882Y196409D01*
X13680Y197069D01*
X14444Y197590D01*
X15138Y198041D01*
X15763Y198423D01*
X16319Y198735D01*
X16840Y198944D01*
X17291Y199117D01*
X17673Y199256D01*
X17985Y199361D01*
X18228Y199395D01*
X18402Y199430D01*
X18506D01*
X18541D01*
X19583D01*
X20138Y199222D01*
X20624Y198944D01*
X21041Y198666D01*
X21423Y198354D01*
X21700Y198041D01*
X21978Y197729D01*
X22187Y197416D01*
X22360Y197104D01*
X22464Y196791D01*
X22569Y196513D01*
X22638Y196236D01*
X22707Y196027D01*
Y195854D01*
X22742Y195680D01*
Y194639D01*
X22707Y194257D01*
X22673Y193909D01*
X22638Y193736D01*
X22603Y193632D01*
X22569Y193562D01*
Y193527D01*
X22325Y193041D01*
X22048Y192590D01*
X21735Y192208D01*
X21423Y191896D01*
X21110Y191618D01*
X20763Y191410D01*
X20451Y191201D01*
X20138Y191062D01*
X19548Y190854D01*
X19305Y190819D01*
X19096Y190750D01*
X18888D01*
X18749Y190715D01*
X18680D01*
X18645D01*
X18472Y190750D01*
X18402Y190819D01*
X18367Y190854D01*
Y191444D01*
X18784Y191687D01*
X19166Y191930D01*
X19478Y192208D01*
X19791Y192486D01*
X19999Y192729D01*
X20208Y192972D01*
X20381Y193250D01*
X20485Y193458D01*
X20659Y193909D01*
X20763Y194222D01*
X20798Y194361D01*
Y194743D01*
X20624Y195159D01*
X20451Y195541D01*
X20208Y195854D01*
X19999Y196166D01*
X19756Y196375D01*
X19513Y196583D01*
X19270Y196756D01*
X19027Y196861D01*
X18576Y197034D01*
X18228Y197138D01*
X18090Y197173D01*
X17985D01*
X17916D01*
X17881D01*
X17569Y197138D01*
X17222Y197104D01*
X16874Y197000D01*
X16527Y196895D01*
X15763Y196548D01*
X14999Y196097D01*
X14236Y195576D01*
X13437Y195020D01*
X12673Y194395D01*
X11944Y193771D01*
X11250Y193111D01*
X10590Y192486D01*
X10000Y191930D01*
X9514Y191410D01*
X9097Y190958D01*
X8785Y190611D01*
X8646Y190507D01*
X8576Y190403D01*
X8542Y190368D01*
X8507Y190333D01*
X7951D01*
X7847Y190368D01*
X7812Y190437D01*
X7778Y190472D01*
Y199152D01*
X7812Y199222D01*
X7917Y199291D01*
X8055Y199361D01*
X8229Y199430D01*
X8681Y199638D01*
X9201Y199812D01*
X9687Y199985D01*
X10139Y200124D01*
X10347Y200194D01*
X10486Y200229D01*
X10555Y200263D01*
X10590D01*
X10660D01*
X10764Y200229D01*
D02*
G37*
G36*
X33449Y121750D02*
X28225Y119648D01*
X33449Y119672D01*
Y118263D01*
X26244Y118591D01*
X21712Y117777D01*
Y119186D01*
X26268Y120013D01*
X33449Y123245D01*
Y121750D01*
D02*
G37*
G36*
Y114424D02*
X21712Y112297D01*
Y115469D01*
X23024Y115711D01*
Y113974D01*
X27107Y114703D01*
Y116453D01*
X28419Y116696D01*
Y114946D01*
X32137Y115602D01*
Y117376D01*
X33449Y117607D01*
Y114424D01*
D02*
G37*
G36*
Y112358D02*
X28407Y109600D01*
X33449Y110511D01*
Y109102D01*
X21712Y106976D01*
Y108385D01*
X27095Y109357D01*
X21712Y110220D01*
Y111714D01*
X27556Y110633D01*
X33449Y113889D01*
Y112358D01*
D02*
G37*
G36*
Y106708D02*
X32842Y106599D01*
X32246Y106502D01*
X31687Y106404D01*
X31153Y106307D01*
X30642Y106222D01*
X30144Y106149D01*
X29682Y106077D01*
X29245Y106004D01*
X28820Y105943D01*
X28419Y105882D01*
X28042Y105821D01*
X27690Y105773D01*
X27350Y105736D01*
X27034Y105688D01*
X26742Y105651D01*
X26475Y105615D01*
X26220Y105590D01*
X25977Y105566D01*
X25758Y105542D01*
X25564Y105518D01*
X25381Y105505D01*
X25223Y105481D01*
X25078Y105469D01*
X24944D01*
X24835Y105457D01*
X24737Y105445D01*
X24665D01*
X24592Y105432D01*
X24737D01*
X25017Y105420D01*
X25308D01*
X25612Y105408D01*
X25940Y105396D01*
X26281Y105372D01*
X26985Y105335D01*
X27714Y105287D01*
X28468Y105226D01*
X29209Y105165D01*
X29950Y105117D01*
X30642Y105056D01*
X30983Y105019D01*
X31299Y104995D01*
X31602Y104971D01*
X31894Y104934D01*
X32161Y104910D01*
X32416Y104886D01*
X32647Y104874D01*
X32842Y104849D01*
X33024Y104837D01*
X33170Y104813D01*
X33291Y104801D01*
X33376D01*
X33437Y104789D01*
X33449D01*
Y103367D01*
X21712Y101241D01*
Y102662D01*
X22332Y102772D01*
X22915Y102881D01*
X23486Y102978D01*
X24021Y103063D01*
X24531Y103148D01*
X25017Y103233D01*
X25479Y103306D01*
X25916Y103367D01*
X26329Y103440D01*
X26718Y103489D01*
X27082Y103549D01*
X27435Y103598D01*
X27763Y103647D01*
X28067Y103683D01*
X28346Y103719D01*
X28601Y103756D01*
X28844Y103792D01*
X29075Y103817D01*
X29282Y103841D01*
X29464Y103865D01*
X29634Y103877D01*
X29780Y103890D01*
X29926Y103902D01*
X30035Y103914D01*
X30144Y103926D01*
X30229Y103938D01*
X30302D01*
X30363Y103950D01*
X30217D01*
X29962Y103962D01*
X29682D01*
X29391Y103974D01*
X29075Y103987D01*
X28747Y104011D01*
X28067Y104048D01*
X27350Y104096D01*
X26621Y104145D01*
X25892Y104205D01*
X25175Y104266D01*
X24482Y104315D01*
X24154Y104351D01*
X23838Y104376D01*
X23535Y104400D01*
X23255Y104424D01*
X22988Y104448D01*
X22733Y104473D01*
X22514Y104497D01*
X22308Y104509D01*
X22137Y104533D01*
X21992Y104546D01*
X21870Y104558D01*
X21785D01*
X21736Y104570D01*
X21712D01*
Y105991D01*
X33449Y108118D01*
Y106708D01*
D02*
G37*
G36*
X32526Y102176D02*
X32671Y102140D01*
X32805Y102091D01*
X32914Y102031D01*
X33012Y101970D01*
X33072Y101921D01*
X33121Y101885D01*
X33133Y101873D01*
X33242Y101751D01*
X33315Y101630D01*
X33376Y101508D01*
X33413Y101399D01*
X33437Y101289D01*
X33449Y101216D01*
Y99151D01*
X33437Y98981D01*
X33400Y98835D01*
X33352Y98689D01*
X33303Y98568D01*
X33242Y98471D01*
X33194Y98386D01*
X33158Y98337D01*
X33145Y98325D01*
X33024Y98203D01*
X32902Y98106D01*
X32769Y98021D01*
X32647Y97960D01*
X32538Y97924D01*
X32453Y97900D01*
X32404Y97875D01*
X32380D01*
X22988Y96199D01*
X22781D01*
X22623Y96211D01*
X22478Y96247D01*
X22344Y96296D01*
X22235Y96344D01*
X22137Y96393D01*
X22077Y96442D01*
X22028Y96478D01*
X22016Y96490D01*
X21919Y96612D01*
X21846Y96733D01*
X21785Y96855D01*
X21749Y96976D01*
X21724Y97073D01*
X21712Y97158D01*
Y99187D01*
X21724Y99358D01*
X21761Y99515D01*
X21809Y99661D01*
X21858Y99783D01*
X21906Y99880D01*
X21955Y99965D01*
X21992Y100014D01*
X22004Y100026D01*
X22125Y100160D01*
X22259Y100257D01*
X22392Y100329D01*
X22514Y100390D01*
X22623Y100427D01*
X22708Y100463D01*
X22757Y100475D01*
X22781D01*
X32185Y102164D01*
X32246Y102176D01*
X32307Y102189D01*
X32355D01*
X32368D01*
X32526Y102176D01*
D02*
G37*
G36*
X33449Y95166D02*
X24993Y92335D01*
X33449Y92432D01*
Y90743D01*
X21712Y88605D01*
Y90026D01*
X29124Y91302D01*
X21712Y91205D01*
Y92408D01*
X29026Y94874D01*
X21712Y93574D01*
Y94996D01*
X33449Y97122D01*
Y95166D01*
D02*
G37*
G36*
X32550Y87074D02*
X32696Y87037D01*
X32817Y86989D01*
X32927Y86928D01*
X33012Y86867D01*
X33085Y86819D01*
X33121Y86782D01*
X33133Y86770D01*
X33242Y86649D01*
X33315Y86527D01*
X33376Y86393D01*
X33413Y86284D01*
X33437Y86175D01*
X33449Y86102D01*
Y82882D01*
X21712Y80780D01*
Y82214D01*
X26888Y83125D01*
Y84267D01*
X26876Y84364D01*
X26839Y84437D01*
X26791Y84486D01*
X26779Y84498D01*
X26706Y84559D01*
X26633Y84595D01*
X26572Y84607D01*
X26560D01*
X26548D01*
X26511D01*
X21712Y83745D01*
Y85179D01*
X26341Y86041D01*
X26402D01*
X26463D01*
X26511D01*
X26536D01*
X26621Y86053D01*
X26645D01*
X26657D01*
X26839Y86029D01*
X26985Y85993D01*
X27046Y85968D01*
X27095Y85956D01*
X27119Y85932D01*
X27131D01*
X27228Y85871D01*
X27301Y85798D01*
X27374Y85725D01*
X27423Y85664D01*
X27459Y85592D01*
X27483Y85543D01*
X27508Y85507D01*
Y85494D01*
X27556Y85628D01*
X27605Y85750D01*
X27678Y85859D01*
X27751Y85956D01*
X27909Y86114D01*
X28079Y86236D01*
X28237Y86321D01*
X28370Y86369D01*
X28419Y86393D01*
X28455D01*
X28480Y86406D01*
X28492D01*
X32185Y87062D01*
X32283Y87074D01*
X32343Y87086D01*
X32380Y87098D01*
X32392D01*
X32550Y87074D01*
D02*
G37*
G36*
X33449Y78739D02*
X21712Y76613D01*
Y79784D01*
X23024Y80027D01*
Y78289D01*
X27107Y79018D01*
Y80768D01*
X28419Y81011D01*
Y79261D01*
X32137Y79918D01*
Y81691D01*
X33449Y81922D01*
Y78739D01*
D02*
G37*
G36*
X32574Y77548D02*
X32696Y77512D01*
X32817Y77463D01*
X32927Y77415D01*
X33000Y77354D01*
X33072Y77305D01*
X33109Y77269D01*
X33121Y77257D01*
X33230Y77135D01*
X33315Y77002D01*
X33364Y76880D01*
X33413Y76759D01*
X33437Y76661D01*
X33449Y76576D01*
Y73429D01*
X21700Y71303D01*
Y72713D01*
X26961Y73672D01*
Y75507D01*
X26973Y75677D01*
X27010Y75835D01*
X27058Y75981D01*
X27107Y76102D01*
X27155Y76200D01*
X27204Y76273D01*
X27240Y76321D01*
X27253Y76333D01*
X27374Y76455D01*
X27508Y76552D01*
X27629Y76637D01*
X27751Y76698D01*
X27860Y76734D01*
X27957Y76759D01*
X28006Y76783D01*
X28030D01*
X32185Y77524D01*
X32283Y77548D01*
X32355Y77561D01*
X32404D01*
X32428D01*
X32574Y77548D01*
D02*
G37*
G36*
X33449Y71084D02*
X23425Y69262D01*
X23292Y69226D01*
X23194Y69153D01*
X23122Y69068D01*
X23073Y68983D01*
X23049Y68897D01*
X23036Y68837D01*
X23024Y68788D01*
Y68011D01*
X23036Y67913D01*
X23073Y67840D01*
X23109Y67792D01*
X23122Y67768D01*
X23207Y67719D01*
X23280Y67695D01*
X23340Y67682D01*
X23365D01*
X23413D01*
X33449Y69481D01*
Y68120D01*
X22964Y66237D01*
X22757D01*
X22599Y66249D01*
X22466Y66285D01*
X22332Y66334D01*
X22222Y66382D01*
X22137Y66431D01*
X22077Y66480D01*
X22028Y66516D01*
X22016Y66528D01*
X21919Y66650D01*
X21846Y66771D01*
X21785Y66893D01*
X21749Y67002D01*
X21724Y67111D01*
X21712Y67184D01*
Y69226D01*
X21724Y69396D01*
X21761Y69554D01*
X21809Y69699D01*
X21858Y69821D01*
X21906Y69918D01*
X21955Y70003D01*
X21992Y70052D01*
X22004Y70064D01*
X22125Y70198D01*
X22247Y70295D01*
X22380Y70380D01*
X22490Y70441D01*
X22599Y70477D01*
X22684Y70501D01*
X22733Y70526D01*
X22757D01*
X33449Y72482D01*
Y71084D01*
D02*
G37*
G36*
X32526Y66978D02*
X32671Y66941D01*
X32805Y66881D01*
X32914Y66832D01*
X33012Y66771D01*
X33072Y66711D01*
X33121Y66674D01*
X33133Y66662D01*
X33242Y66540D01*
X33315Y66419D01*
X33376Y66297D01*
X33413Y66188D01*
X33437Y66079D01*
X33449Y66006D01*
Y63965D01*
X33437Y63794D01*
X33400Y63636D01*
X33352Y63503D01*
X33303Y63381D01*
X33242Y63284D01*
X33194Y63199D01*
X33158Y63151D01*
X33145Y63138D01*
X33024Y63005D01*
X32902Y62908D01*
X32769Y62823D01*
X32647Y62762D01*
X32538Y62725D01*
X32453Y62701D01*
X32404Y62677D01*
X32380D01*
X30351Y62336D01*
X30241Y62324D01*
X30156Y62312D01*
X30084D01*
X30071D01*
X30059D01*
X30011D01*
X29998D01*
X29986D01*
X29768Y62324D01*
X29549Y62361D01*
X29355Y62409D01*
X29172Y62470D01*
X29014Y62519D01*
X28893Y62567D01*
X28844Y62592D01*
X28808Y62604D01*
X28796Y62616D01*
X28783D01*
X28735Y62640D01*
X28674Y62677D01*
X28589Y62725D01*
X28492Y62774D01*
X28261Y62895D01*
X28018Y63017D01*
X27787Y63138D01*
X27678Y63199D01*
X27593Y63248D01*
X27508Y63284D01*
X27447Y63321D01*
X27411Y63333D01*
X27398Y63345D01*
X27204Y63442D01*
X27034Y63539D01*
X26876Y63624D01*
X26742Y63697D01*
X26621Y63758D01*
X26511Y63819D01*
X26426Y63867D01*
X26341Y63904D01*
X26281Y63940D01*
X26220Y63965D01*
X26147Y64013D01*
X26110Y64038D01*
X26098D01*
X25916Y64135D01*
X25746Y64208D01*
X25600Y64268D01*
X25479Y64305D01*
X25381Y64329D01*
X25308Y64341D01*
X25260D01*
X25248D01*
X25187D01*
X25139Y64329D01*
X25102Y64317D01*
X25090D01*
X23438Y64025D01*
X23316Y63977D01*
X23231Y63916D01*
X23170Y63867D01*
X23146Y63855D01*
Y63843D01*
X23085Y63734D01*
X23049Y63624D01*
X23036Y63551D01*
Y62762D01*
X23049Y62665D01*
X23085Y62592D01*
X23122Y62543D01*
X23134Y62531D01*
X23219Y62470D01*
X23292Y62446D01*
X23352Y62434D01*
X23377D01*
X23425D01*
X25940Y62871D01*
Y61510D01*
X22964Y61000D01*
X22781D01*
X22623Y61012D01*
X22478Y61049D01*
X22344Y61085D01*
X22235Y61146D01*
X22137Y61194D01*
X22077Y61231D01*
X22028Y61267D01*
X22016Y61279D01*
X21919Y61401D01*
X21846Y61523D01*
X21785Y61644D01*
X21749Y61753D01*
X21724Y61851D01*
X21712Y61936D01*
Y63965D01*
X21724Y64135D01*
X21761Y64293D01*
X21809Y64438D01*
X21858Y64560D01*
X21906Y64657D01*
X21955Y64742D01*
X21992Y64791D01*
X22004Y64803D01*
X22125Y64925D01*
X22259Y65022D01*
X22392Y65107D01*
X22514Y65167D01*
X22623Y65204D01*
X22708Y65228D01*
X22757Y65253D01*
X22781D01*
X25041Y65666D01*
X25211Y65702D01*
X25357Y65714D01*
X25418Y65726D01*
X25454D01*
X25479D01*
X25491D01*
X25661Y65714D01*
X25831Y65690D01*
X25977Y65653D01*
X26098Y65617D01*
X26208Y65581D01*
X26281Y65544D01*
X26341Y65520D01*
X26353Y65508D01*
X26439Y65483D01*
X26548Y65423D01*
X26706Y65350D01*
X26888Y65253D01*
X27095Y65143D01*
X27301Y65022D01*
X27763Y64754D01*
X27981Y64621D01*
X28200Y64487D01*
X28407Y64366D01*
X28577Y64256D01*
X28735Y64171D01*
X28844Y64098D01*
X28917Y64050D01*
X28929Y64038D01*
X28941D01*
X29172Y63916D01*
X29391Y63831D01*
X29585Y63758D01*
X29768Y63722D01*
X29913Y63697D01*
X30035Y63685D01*
X30108Y63673D01*
X30120D01*
X30132D01*
X30241D01*
X30339Y63685D01*
X30411Y63697D01*
X30424D01*
X30436D01*
X31736Y63928D01*
X31845Y63965D01*
X31930Y64025D01*
X31979Y64074D01*
X32003Y64098D01*
X32076Y64208D01*
X32113Y64317D01*
X32125Y64402D01*
Y65180D01*
X32113Y65277D01*
X32076Y65350D01*
X32040Y65398D01*
X32028Y65423D01*
X31942Y65483D01*
X31870Y65520D01*
X31821Y65532D01*
X31797D01*
X31748D01*
X31736Y65520D01*
X29318Y65082D01*
Y66455D01*
X32198Y66966D01*
X32246Y66978D01*
X32307Y66990D01*
X32355D01*
X32368D01*
X32526Y66978D01*
D02*
G37*
G36*
X20900Y118250D02*
Y60004D01*
X34903D01*
Y13600D01*
X0D01*
Y60004D01*
X13400D01*
Y118250D01*
X20900D01*
D02*
G37*
G36*
X2905Y236787D02*
X2406D01*
X2385Y236842D01*
X2361Y236894D01*
X2302Y236992D01*
X2239Y237078D01*
X2173Y237155D01*
X2142Y237189D01*
X2114Y237217D01*
X2090Y237245D01*
X2066Y237266D01*
X2048Y237283D01*
X2034Y237293D01*
X2024Y237300D01*
X2021Y237304D01*
X1916Y237380D01*
X1819Y237443D01*
X1733Y237495D01*
X1656Y237533D01*
X1622Y237550D01*
X1590Y237564D01*
X1566Y237574D01*
X1542Y237585D01*
X1524Y237592D01*
X1510Y237595D01*
X1503Y237599D01*
X1500D01*
Y238157D01*
X1583Y238126D01*
X1663Y238095D01*
X1743Y238060D01*
X1816Y238022D01*
X1885Y237984D01*
X1951Y237946D01*
X2010Y237908D01*
X2066Y237869D01*
X2118Y237835D01*
X2159Y237800D01*
X2201Y237769D01*
X2232Y237744D01*
X2256Y237724D01*
X2277Y237706D01*
X2288Y237696D01*
X2291Y237692D01*
Y240000D01*
X2905D01*
Y236787D01*
D02*
G37*
G36*
X2415Y12658D02*
X2439Y12606D01*
X2498Y12508D01*
X2561Y12422D01*
X2627Y12345D01*
X2658Y12311D01*
X2686Y12283D01*
X2710Y12255D01*
X2734Y12234D01*
X2752Y12217D01*
X2766Y12207D01*
X2776Y12200D01*
X2780Y12196D01*
X2884Y12120D01*
X2981Y12057D01*
X3067Y12005D01*
X3144Y11967D01*
X3179Y11950D01*
X3210Y11936D01*
X3234Y11925D01*
X3258Y11915D01*
X3276Y11908D01*
X3290Y11905D01*
X3297Y11901D01*
X3300D01*
Y11343D01*
X3217Y11374D01*
X3137Y11405D01*
X3057Y11440D01*
X2984Y11478D01*
X2915Y11516D01*
X2849Y11554D01*
X2790Y11592D01*
X2734Y11631D01*
X2682Y11665D01*
X2641Y11700D01*
X2599Y11731D01*
X2568Y11755D01*
X2544Y11776D01*
X2523Y11794D01*
X2512Y11804D01*
X2509Y11808D01*
Y9500D01*
X1895D01*
Y12713D01*
X2394D01*
X2415Y12658D01*
D02*
G37*
%LPC*%
G36*
X7725Y77765D02*
X7692D01*
X7664D01*
X7642D01*
X7625D01*
X7614D01*
X7609D01*
X7381Y77760D01*
X7176Y77754D01*
X6987Y77738D01*
X6815Y77721D01*
X6659Y77699D01*
X6526Y77671D01*
X6404Y77643D01*
X6299Y77616D01*
X6210Y77588D01*
X6132Y77560D01*
X6066Y77538D01*
X6016Y77510D01*
X5977Y77494D01*
X5955Y77477D01*
X5938Y77471D01*
X5932Y77466D01*
X5860Y77410D01*
X5794Y77349D01*
X5738Y77288D01*
X5694Y77227D01*
X5649Y77166D01*
X5616Y77105D01*
X5588Y77049D01*
X5566Y76994D01*
X5538Y76894D01*
X5527Y76850D01*
X5522Y76811D01*
Y76783D01*
X5516Y76755D01*
Y76739D01*
X5522Y76661D01*
X5533Y76583D01*
X5555Y76511D01*
X5583Y76445D01*
X5644Y76317D01*
X5722Y76212D01*
X5799Y76128D01*
X5833Y76095D01*
X5860Y76067D01*
X5888Y76039D01*
X5910Y76023D01*
X5921Y76017D01*
X5927Y76012D01*
X6016Y75962D01*
X6121Y75917D01*
X6238Y75873D01*
X6365Y75840D01*
X6504Y75812D01*
X6643Y75790D01*
X6926Y75756D01*
X7059Y75740D01*
X7187Y75734D01*
X7303Y75729D01*
X7403Y75723D01*
X7486Y75718D01*
X7525D01*
X7553D01*
X7575D01*
X7592D01*
X7603D01*
X7609D01*
X7836Y75723D01*
X8041Y75734D01*
X8236Y75745D01*
X8408Y75767D01*
X8563Y75790D01*
X8707Y75817D01*
X8829Y75851D01*
X8941Y75878D01*
X9040Y75906D01*
X9118Y75940D01*
X9185Y75967D01*
X9240Y75989D01*
X9285Y76012D01*
X9312Y76028D01*
X9329Y76034D01*
X9335Y76039D01*
X9401Y76089D01*
X9457Y76145D01*
X9507Y76200D01*
X9545Y76256D01*
X9584Y76317D01*
X9612Y76372D01*
X9656Y76483D01*
X9684Y76583D01*
X9690Y76628D01*
X9695Y76661D01*
X9701Y76694D01*
Y76733D01*
X9695Y76816D01*
X9684Y76889D01*
X9662Y76966D01*
X9634Y77033D01*
X9568Y77161D01*
X9495Y77266D01*
X9457Y77310D01*
X9418Y77349D01*
X9379Y77382D01*
X9351Y77416D01*
X9323Y77438D01*
X9301Y77455D01*
X9290Y77460D01*
X9285Y77466D01*
X9196Y77521D01*
X9096Y77566D01*
X8974Y77605D01*
X8846Y77638D01*
X8713Y77666D01*
X8574Y77693D01*
X8291Y77727D01*
X8158Y77743D01*
X8030Y77749D01*
X7914Y77754D01*
X7814Y77760D01*
X7725Y77765D01*
D02*
G37*
G36*
X31809Y100731D02*
X31797D01*
X31784D01*
X31736D01*
X23438Y99236D01*
X23304Y99187D01*
X23207Y99127D01*
X23134Y99042D01*
X23085Y98957D01*
X23061Y98872D01*
X23049Y98799D01*
X23036Y98762D01*
Y97985D01*
X23049Y97887D01*
X23085Y97815D01*
X23122Y97754D01*
X23134Y97742D01*
X23219Y97681D01*
X23292Y97657D01*
X23352Y97644D01*
X23377D01*
X23425D01*
X31736Y99127D01*
X31845Y99175D01*
X31930Y99236D01*
X31979Y99285D01*
X32003Y99309D01*
X32076Y99418D01*
X32113Y99528D01*
X32125Y99600D01*
Y100378D01*
X32113Y100475D01*
X32076Y100560D01*
X32040Y100609D01*
X32028Y100621D01*
X31955Y100682D01*
X31870Y100718D01*
X31809Y100731D01*
D02*
G37*
G36*
Y85555D02*
X31797D01*
X31784D01*
X31736D01*
X28686Y84996D01*
X28577Y84960D01*
X28480Y84911D01*
X28431Y84863D01*
X28407Y84851D01*
Y84838D01*
X28334Y84729D01*
X28297Y84632D01*
X28285Y84547D01*
Y83380D01*
X32125Y84073D01*
Y85203D01*
X32113Y85300D01*
X32076Y85385D01*
X32040Y85434D01*
X32028Y85458D01*
X31955Y85519D01*
X31870Y85543D01*
X31809Y85555D01*
D02*
G37*
G36*
Y76102D02*
X31797D01*
X31784D01*
X31736D01*
X28674Y75519D01*
X28565Y75483D01*
X28468Y75422D01*
X28419Y75374D01*
X28395Y75361D01*
Y75349D01*
X28334Y75240D01*
X28297Y75143D01*
X28285Y75070D01*
Y73879D01*
X32125Y74596D01*
Y75762D01*
X32113Y75859D01*
X32076Y75932D01*
X32040Y75981D01*
X32028Y75993D01*
X31955Y76054D01*
X31870Y76090D01*
X31809Y76102D01*
D02*
G37*
G36*
X18976Y108341D02*
X18971D01*
X18955Y108336D01*
X18929Y108331D01*
X18888Y108326D01*
X17307Y108045D01*
X17302D01*
X17291Y108040D01*
X17276D01*
X17255Y108029D01*
X17198Y108009D01*
X17130Y107972D01*
X17057Y107920D01*
X16990Y107853D01*
X16958Y107811D01*
X16927Y107764D01*
X16906Y107712D01*
X16886Y107655D01*
Y107660D01*
X16875Y107676D01*
X16865Y107697D01*
X16849Y107728D01*
X16828Y107754D01*
X16797Y107785D01*
X16766Y107816D01*
X16724Y107842D01*
X16719D01*
X16709Y107853D01*
X16688Y107858D01*
X16662Y107868D01*
X16600Y107884D01*
X16522Y107894D01*
X16516D01*
X16506D01*
X16470Y107889D01*
X16459D01*
X16438D01*
X16412D01*
X16386D01*
X14405Y107520D01*
Y108341D01*
Y105637D01*
X19428Y106537D01*
Y106126D01*
X18867Y106027D01*
Y105736D01*
Y105268D01*
X17276Y104987D01*
Y105736D01*
X16742Y105637D01*
D01*
X16714Y105632D01*
Y104883D01*
X14967Y104571D01*
Y105315D01*
X14405Y105211D01*
Y103854D01*
X16357Y104207D01*
X19428Y104764D01*
Y104207D01*
Y104119D01*
Y107915D01*
X19423Y107946D01*
X19413Y107993D01*
X19397Y108040D01*
X19371Y108097D01*
X19340Y108149D01*
X19293Y108201D01*
X19288Y108206D01*
X19272Y108222D01*
X19241Y108243D01*
X19205Y108269D01*
X19158Y108295D01*
X19106Y108315D01*
X19044Y108331D01*
X18976Y108341D01*
D02*
G37*
G36*
X18997Y104207D02*
X18986D01*
X18966D01*
X18929Y104202D01*
X18888Y104192D01*
X17006Y103854D01*
X14863Y103469D01*
X14852D01*
X14832Y103459D01*
X14795Y103448D01*
X14748Y103433D01*
X14696Y103407D01*
X14639Y103375D01*
X14582Y103334D01*
X14530Y103282D01*
X14525Y103277D01*
X14509Y103256D01*
X14488Y103225D01*
X14468Y103178D01*
X14447Y103126D01*
X14426Y103069D01*
X14410Y103001D01*
X14405Y102928D01*
Y101483D01*
Y100417D01*
X14416D01*
X14436Y100411D01*
X14473D01*
X14525Y100406D01*
X14587Y100401D01*
X14660Y100391D01*
X14748Y100385D01*
X14842Y100375D01*
X14951Y100365D01*
X15066Y100354D01*
X15185Y100344D01*
X15315Y100333D01*
X15450Y100323D01*
X15591Y100307D01*
X15887Y100287D01*
X16194Y100261D01*
X16506Y100235D01*
X16818Y100214D01*
X17125Y100193D01*
X17416Y100177D01*
X17556Y100167D01*
X17692Y100162D01*
X17816Y100157D01*
X17936D01*
X18045Y100151D01*
X18108D01*
X18082Y100146D01*
X18050D01*
X18014Y100141D01*
X17967Y100136D01*
X17920Y100131D01*
X17858Y100125D01*
X17796Y100120D01*
X17723Y100115D01*
X17645Y100105D01*
X17556Y100094D01*
X17458Y100084D01*
X17354Y100068D01*
X17244Y100053D01*
X17125Y100037D01*
X16995Y100021D01*
X16854Y100001D01*
X16704Y99980D01*
X16548Y99954D01*
X16381Y99933D01*
X16204Y99902D01*
X16017Y99876D01*
X15820Y99845D01*
X15612Y99808D01*
X15393Y99772D01*
X15164Y99735D01*
X14920Y99694D01*
X14670Y99647D01*
X14405Y99600D01*
Y99647D01*
Y98992D01*
X19428Y99902D01*
Y100562D01*
Y100510D01*
X19423D01*
X19397Y100515D01*
X19361D01*
X19309Y100521D01*
X19246Y100531D01*
X19168Y100536D01*
X19085Y100547D01*
X18986Y100552D01*
X18877Y100562D01*
X18763Y100573D01*
X18638Y100588D01*
X18508Y100599D01*
X18373Y100609D01*
X18227Y100625D01*
X17931Y100651D01*
X17614Y100671D01*
X17296Y100697D01*
X16974Y100723D01*
X16662Y100744D01*
X16360Y100760D01*
X16215Y100770D01*
X16074Y100775D01*
X15944Y100781D01*
X15820D01*
X15700Y100786D01*
X15638D01*
X15669Y100791D01*
X15700D01*
X15742Y100796D01*
X15788Y100801D01*
X15846D01*
X15908Y100807D01*
X15976Y100817D01*
X16054Y100822D01*
X16137Y100833D01*
X16230Y100843D01*
X16334Y100853D01*
X16444Y100864D01*
X16558Y100879D01*
X16683Y100895D01*
X16818Y100916D01*
X16964Y100931D01*
X17114Y100952D01*
X17276Y100978D01*
X17447Y101004D01*
X17629Y101030D01*
X17816Y101061D01*
X18014Y101093D01*
X18227Y101124D01*
X18446Y101160D01*
X18674Y101202D01*
X18914Y101243D01*
X19168Y101285D01*
X19428Y101332D01*
Y101935D01*
X14405Y101025D01*
Y101483D01*
X19428Y102393D01*
Y101935D01*
Y103786D01*
X19423Y103823D01*
X19416Y103854D01*
X19413Y103869D01*
X19392Y103916D01*
X19371Y103973D01*
X19335Y104025D01*
X19288Y104077D01*
X19283Y104083D01*
X19267Y104098D01*
X19236Y104119D01*
X19205Y104145D01*
X19158Y104166D01*
X19111Y104187D01*
X19054Y104202D01*
X18997Y104207D01*
D02*
G37*
G36*
X19428Y99647D02*
Y99486D01*
X18867Y99387D01*
Y99096D01*
Y98628D01*
X17276Y98347D01*
Y99096D01*
X16714Y98992D01*
D01*
Y98243D01*
X14967Y97931D01*
Y98675D01*
X14405Y98571D01*
Y97213D01*
X19428Y98123D01*
Y97817D01*
X18862Y97707D01*
Y97286D01*
X14405Y96480D01*
Y95872D01*
X18862Y96683D01*
Y96251D01*
X19428Y96355D01*
Y96116D01*
Y99647D01*
D02*
G37*
G36*
Y96116D02*
X16948Y94977D01*
X14405Y95201D01*
Y95872D01*
Y93209D01*
X15631Y93771D01*
X16948Y94374D01*
X19428Y94156D01*
Y94759D01*
X18050Y94879D01*
X19428Y95513D01*
Y96116D01*
D02*
G37*
G36*
Y93813D02*
Y93771D01*
X18867Y93672D01*
Y93209D01*
D01*
Y92913D01*
X17276Y92632D01*
Y93381D01*
X16714Y93277D01*
Y93209D01*
D01*
Y92528D01*
X14967Y92216D01*
Y92960D01*
X14405Y92856D01*
Y91499D01*
X19428Y92409D01*
Y91499D01*
X14405D01*
D01*
X19428D01*
Y93813D01*
D02*
G37*
G36*
Y91072D02*
D01*
X16355Y89689D01*
X14405Y89335D01*
Y88732D01*
X19428D01*
Y91072D01*
D02*
G37*
G36*
Y88025D02*
D01*
X14405Y87864D01*
Y87297D01*
X15232Y87339D01*
Y86652D01*
X14405Y86408D01*
Y85768D01*
X19428Y87422D01*
Y85768D01*
X14405D01*
D01*
X19428D01*
Y88025D01*
D02*
G37*
G36*
Y85628D02*
D01*
X14967Y84827D01*
Y85571D01*
X14405Y85467D01*
Y84515D01*
Y84109D01*
X19428Y85014D01*
Y84515D01*
D01*
Y84094D01*
X19423Y84130D01*
X19413Y84172D01*
X19392Y84224D01*
X19371Y84276D01*
X19335Y84333D01*
X19288Y84385D01*
X19283Y84390D01*
X19267Y84406D01*
X19236Y84427D01*
X19205Y84453D01*
X19158Y84473D01*
X19106Y84494D01*
X19054Y84510D01*
X18992Y84515D01*
X18981D01*
X18960D01*
X18929Y84510D01*
X18888Y84499D01*
X17109Y84182D01*
X17099D01*
X17078Y84172D01*
X17036Y84161D01*
X16990Y84146D01*
X16938Y84120D01*
X16923Y84109D01*
D01*
X16886Y84083D01*
X16828Y84042D01*
X16776Y83990D01*
X16771Y83985D01*
X16756Y83964D01*
X16735Y83933D01*
X16714Y83891D01*
X16693Y83839D01*
X16672Y83777D01*
X16657Y83709D01*
X16652Y83636D01*
Y82851D01*
X14400Y82440D01*
Y81837D01*
X16153Y82154D01*
X16670Y82248D01*
X19428Y82747D01*
Y82248D01*
D01*
Y81827D01*
X19427Y81837D01*
X19423Y81858D01*
X19413Y81905D01*
X19397Y81951D01*
X19371Y82003D01*
X19340Y82055D01*
X19293Y82107D01*
X19288Y82113D01*
X19267Y82128D01*
X19241Y82154D01*
X19200Y82180D01*
X19153Y82201D01*
X19096Y82227D01*
X19033Y82243D01*
X18966Y82248D01*
X18960D01*
X18940D01*
X18914Y82243D01*
X18893Y82237D01*
X17660Y82019D01*
Y81431D01*
X18695Y81619D01*
X18700Y81624D01*
X18721D01*
X18732D01*
X18752Y81619D01*
X18784Y81603D01*
X18820Y81577D01*
X18825Y81567D01*
X18841Y81546D01*
X18856Y81515D01*
X18862Y81473D01*
Y81140D01*
X18856Y81104D01*
X18841Y81057D01*
X18810Y81010D01*
X18799Y81000D01*
X18778Y80979D01*
X18742Y80953D01*
X18695Y80937D01*
X18139Y80839D01*
X18134D01*
X18128D01*
X18097Y80833D01*
X18056Y80828D01*
X18009D01*
X18004D01*
X17998D01*
X17967Y80833D01*
X17915Y80839D01*
X17853Y80849D01*
X17775Y80865D01*
X17692Y80896D01*
X17598Y80932D01*
X17499Y80984D01*
X17494D01*
X17489Y80989D01*
X17458Y81010D01*
X17411Y81041D01*
X17343Y81078D01*
X17270Y81125D01*
X17182Y81177D01*
X17088Y81234D01*
X16995Y81291D01*
X16797Y81405D01*
X16709Y81457D01*
X16620Y81504D01*
X16542Y81546D01*
X16475Y81577D01*
X16428Y81603D01*
X16392Y81613D01*
X16386Y81619D01*
X16360Y81629D01*
X16329Y81645D01*
X16282Y81660D01*
X16230Y81676D01*
X16168Y81691D01*
X16095Y81702D01*
X16022Y81707D01*
X16017D01*
X16007D01*
X15991D01*
X15965Y81702D01*
X15903Y81697D01*
X15830Y81681D01*
X14863Y81504D01*
X14852D01*
X14832Y81494D01*
X14795Y81483D01*
X14748Y81468D01*
X14696Y81442D01*
X14639Y81405D01*
X14582Y81364D01*
X14530Y81312D01*
X14525Y81307D01*
X14509Y81286D01*
X14488Y81249D01*
X14468Y81208D01*
X14447Y81156D01*
X14426Y81093D01*
X14410Y81026D01*
X14405Y80953D01*
Y80085D01*
X14410Y80048D01*
X14421Y80007D01*
X14436Y79960D01*
X14462Y79908D01*
X14494Y79856D01*
X14535Y79804D01*
X14540Y79799D01*
X14561Y79783D01*
X14587Y79767D01*
X14629Y79747D01*
X14676Y79721D01*
X14733Y79705D01*
X14795Y79689D01*
X14863Y79684D01*
X14941D01*
X16215Y79903D01*
Y80485D01*
X15138Y80298D01*
X15118D01*
X15107D01*
X15081Y80303D01*
X15050Y80313D01*
X15014Y80339D01*
X15008Y80345D01*
X14993Y80365D01*
X14977Y80397D01*
X14972Y80438D01*
Y80776D01*
X14977Y80807D01*
X14993Y80854D01*
X15019Y80901D01*
Y80906D01*
X15029Y80911D01*
X15055Y80932D01*
X15092Y80958D01*
X15144Y80979D01*
X15851Y81104D01*
X15856D01*
X15872Y81109D01*
X15892Y81114D01*
X15918D01*
X15924D01*
X15944D01*
X15976Y81109D01*
X16017Y81099D01*
X16069Y81083D01*
X16132Y81057D01*
X16204Y81026D01*
X16282Y80984D01*
X16288D01*
X16303Y80974D01*
X16334Y80953D01*
X16360Y80943D01*
X16386Y80927D01*
X16423Y80911D01*
X16459Y80891D01*
X16506Y80865D01*
X16558Y80839D01*
X16615Y80807D01*
X16683Y80771D01*
X16756Y80729D01*
X16839Y80688D01*
X16844Y80683D01*
X16860Y80677D01*
X16886Y80662D01*
X16922Y80646D01*
X16958Y80625D01*
X17005Y80599D01*
X17104Y80547D01*
X17208Y80495D01*
X17307Y80443D01*
X17348Y80423D01*
X17385Y80402D01*
X17411Y80386D01*
X17432Y80376D01*
X17437D01*
X17442Y80371D01*
X17458Y80365D01*
X17478Y80355D01*
X17530Y80334D01*
X17598Y80313D01*
X17676Y80287D01*
X17759Y80267D01*
X17853Y80251D01*
X17946Y80246D01*
X17952D01*
X17957D01*
X17978D01*
X17983D01*
X17988D01*
X18019D01*
X18056Y80251D01*
X18102Y80256D01*
X18971Y80402D01*
X18981D01*
X19002Y80412D01*
X19038Y80423D01*
X19085Y80438D01*
X19137Y80464D01*
X19194Y80501D01*
X19246Y80542D01*
X19298Y80599D01*
X19304Y80605D01*
X19319Y80625D01*
X19340Y80662D01*
X19366Y80703D01*
X19387Y80755D01*
X19408Y80813D01*
X19423Y80880D01*
X19428Y80953D01*
Y80085D01*
X17231Y79684D01*
D01*
X14405Y79169D01*
Y79747D01*
Y79689D01*
Y79684D01*
Y79169D01*
Y78566D01*
X19428Y79481D01*
Y78920D01*
Y78831D01*
Y85628D01*
D02*
G37*
G36*
X14405Y81837D02*
X14400D01*
D01*
X14405D01*
D01*
D02*
G37*
G36*
X18997Y78920D02*
X18986D01*
X18966D01*
X18929Y78915D01*
X18888Y78904D01*
X17006Y78566D01*
X14863Y78181D01*
X14852D01*
X14832Y78171D01*
X14795Y78161D01*
X14748Y78145D01*
X14696Y78119D01*
X14639Y78088D01*
X14582Y78046D01*
X14530Y77994D01*
X14525Y77989D01*
X14509Y77968D01*
X14488Y77937D01*
X14468Y77890D01*
X14447Y77838D01*
X14426Y77781D01*
X14410Y77713D01*
X14405Y77641D01*
Y76195D01*
X19428D01*
Y78499D01*
X19423Y78535D01*
X19416Y78566D01*
X19413Y78582D01*
X19392Y78629D01*
X19371Y78686D01*
X19335Y78738D01*
X19288Y78790D01*
X19283Y78795D01*
X19267Y78811D01*
X19236Y78831D01*
X19205Y78857D01*
X19158Y78878D01*
X19111Y78899D01*
X19054Y78915D01*
X18997Y78920D01*
D02*
G37*
G36*
X19428Y75602D02*
D01*
X14405Y74687D01*
Y74489D01*
D01*
Y74084D01*
X19428Y74999D01*
Y74489D01*
D01*
Y75602D01*
D02*
G37*
G36*
X18992Y74489D02*
X18981D01*
X18960D01*
D01*
X18929Y74484D01*
X18888Y74474D01*
X17109Y74157D01*
X17099D01*
X17078Y74146D01*
X17036Y74136D01*
X16990Y74120D01*
X16938Y74094D01*
X16886Y74058D01*
X16828Y74016D01*
X16776Y73964D01*
X16771Y73959D01*
X16756Y73938D01*
X16735Y73907D01*
X16714Y73865D01*
X16693Y73813D01*
X16672Y73751D01*
X16657Y73683D01*
X16652Y73611D01*
Y72825D01*
X14400Y72415D01*
Y74489D01*
D01*
Y71811D01*
X14405D01*
D01*
X14400D01*
X14405Y71812D01*
X16670Y72222D01*
D01*
X19428Y72721D01*
Y71811D01*
Y71832D01*
Y72721D01*
Y74068D01*
X19426Y74084D01*
X19423Y74105D01*
X19413Y74146D01*
X19392Y74198D01*
X19371Y74250D01*
X19335Y74307D01*
X19288Y74359D01*
X19283Y74365D01*
X19267Y74380D01*
X19236Y74401D01*
X19205Y74427D01*
X19158Y74448D01*
X19106Y74469D01*
X19054Y74484D01*
X18992Y74489D01*
D02*
G37*
G36*
X18966Y72222D02*
X18960D01*
X18940D01*
X18914Y72217D01*
X18893Y72212D01*
X17660Y71993D01*
Y71811D01*
D01*
Y71406D01*
X18695Y71593D01*
X18700Y71598D01*
X18721D01*
X18732D01*
X18752Y71593D01*
X18784Y71577D01*
X18820Y71551D01*
X18825Y71541D01*
X18841Y71520D01*
X18856Y71489D01*
X18862Y71447D01*
Y71115D01*
X18856Y71078D01*
X18841Y71031D01*
X18810Y70985D01*
X18799Y70974D01*
X18778Y70953D01*
X18742Y70927D01*
X18695Y70912D01*
X18139Y70813D01*
X18134D01*
X18128D01*
X18097Y70808D01*
X18056Y70803D01*
X18009D01*
X18004D01*
X17998D01*
X17967Y70808D01*
X17915Y70813D01*
X17853Y70823D01*
X17775Y70839D01*
X17692Y70870D01*
X17598Y70907D01*
X17499Y70959D01*
X17494D01*
X17489Y70964D01*
X17458Y70985D01*
X17411Y71016D01*
X17343Y71052D01*
X17270Y71099D01*
X17182Y71151D01*
X17088Y71208D01*
X16995Y71265D01*
X16797Y71380D01*
X16709Y71432D01*
X16620Y71479D01*
X16542Y71520D01*
X16475Y71551D01*
X16428Y71577D01*
X16392Y71588D01*
X16386Y71593D01*
X16360Y71603D01*
X16329Y71619D01*
X16282Y71635D01*
X16230Y71650D01*
X16168Y71666D01*
X16095Y71676D01*
X16022Y71681D01*
X16017D01*
X16007D01*
X15991D01*
X15965Y71676D01*
X15903Y71671D01*
X15830Y71655D01*
X14863Y71479D01*
X14852D01*
X14832Y71468D01*
X14795Y71458D01*
X14748Y71442D01*
X14696Y71416D01*
X14639Y71380D01*
X14582Y71338D01*
X14530Y71286D01*
X14525Y71281D01*
X14509Y71260D01*
X14488Y71224D01*
X14468Y71182D01*
X14447Y71130D01*
X14426Y71068D01*
X14410Y71000D01*
X14405Y70927D01*
Y70059D01*
X14410Y70023D01*
X14421Y69981D01*
X14436Y69934D01*
X14462Y69882D01*
X14494Y69830D01*
X14535Y69778D01*
X14540Y69773D01*
X14561Y69757D01*
X14587Y69742D01*
X14629Y69721D01*
X14676Y69695D01*
X14733Y69679D01*
X14795Y69664D01*
X14863Y69659D01*
X14405D01*
D01*
X19428D01*
Y71801D01*
X19423Y71832D01*
X19413Y71879D01*
X19397Y71926D01*
X19371Y71978D01*
X19340Y72030D01*
X19293Y72082D01*
X19288Y72087D01*
X19267Y72103D01*
X19241Y72129D01*
X19200Y72155D01*
X19153Y72175D01*
X19096Y72201D01*
X19033Y72217D01*
X18966Y72222D01*
D02*
G37*
G36*
X16562Y57504D02*
X15737D01*
X15520Y57460D01*
X15216D01*
X14869Y57373D01*
X14478Y57287D01*
X14044Y57200D01*
X13567Y57026D01*
X13090Y56853D01*
X12612Y56592D01*
X12135Y56288D01*
X11657Y55941D01*
X11180Y55507D01*
X10789Y54986D01*
X10399Y54422D01*
X10095Y53771D01*
X10052Y53728D01*
X10008Y53554D01*
X9878Y53294D01*
X9791Y52947D01*
X9661Y52513D01*
X9531Y52035D01*
X9487Y51558D01*
X9444Y51037D01*
Y50212D01*
X9487Y49822D01*
X9531Y49344D01*
X9618Y48824D01*
X9791Y48216D01*
X9965Y47565D01*
X10225Y46957D01*
X10095D01*
X10008Y47001D01*
X9791Y47088D01*
X9487Y47218D01*
X9140Y47391D01*
X8750Y47522D01*
X8402Y47652D01*
X8142Y47739D01*
X7968Y47782D01*
X7882D01*
X7665Y47695D01*
X7491Y47565D01*
X7317Y47435D01*
X7100Y47218D01*
X6840Y46957D01*
X6580Y46610D01*
X6276Y46176D01*
X5972Y45612D01*
X5668Y44961D01*
X5321Y44223D01*
X4974Y43355D01*
X4627Y42314D01*
X4279Y41142D01*
Y41098D01*
X4193Y41055D01*
X4106Y40925D01*
X4019Y40751D01*
X3715Y40361D01*
X3411Y39840D01*
X3064Y39319D01*
X2760Y38798D01*
X2587Y38321D01*
X2500Y37930D01*
Y57504D01*
D01*
Y16100D01*
X32403D01*
X15997D01*
X16258Y16143D01*
X16605Y16187D01*
X17082Y16230D01*
X17560Y16317D01*
X18124Y16447D01*
X18732Y16621D01*
X19339Y16838D01*
X19947Y17142D01*
X20598Y17489D01*
X21205Y17879D01*
X21770Y18357D01*
X22290Y18921D01*
X22811Y19572D01*
X23202Y20310D01*
Y20353D01*
X23245Y20527D01*
X23289Y20744D01*
X23375Y21048D01*
X23462Y21742D01*
X23506Y22393D01*
Y22480D01*
X23462Y22740D01*
X23419Y23131D01*
X23289Y23652D01*
X23115Y24216D01*
X22811Y24823D01*
X22421Y25474D01*
X21900Y26082D01*
X21943D01*
X22073Y26125D01*
X22290Y26212D01*
X22594Y26299D01*
X22941Y26429D01*
X23332Y26559D01*
X24200Y26907D01*
X25111Y27341D01*
X26023Y27861D01*
X26457Y28165D01*
X26804Y28469D01*
X27151Y28816D01*
X27412Y29163D01*
X27455Y29207D01*
X27542Y29337D01*
X27585Y29467D01*
X27672Y29641D01*
X27759Y29858D01*
X27846Y30118D01*
X27932Y30422D01*
X28019Y30769D01*
X28106Y31203D01*
X28193Y31681D01*
X28280Y32245D01*
X28366Y32896D01*
X28410Y33590D01*
X28497Y34371D01*
X28540Y34415D01*
X28714Y34545D01*
X28974Y34762D01*
X29321Y34979D01*
X29755Y35239D01*
X30319Y35500D01*
X30970Y35760D01*
X31752Y35977D01*
X31925Y36281D01*
X31882Y36324D01*
X31838Y36368D01*
X31665Y36455D01*
X31491Y36541D01*
X31187Y36628D01*
X30884Y36715D01*
X30450Y36802D01*
X29972D01*
Y36845D01*
X30016Y36932D01*
X30146Y37062D01*
X30319Y37236D01*
X30623Y37496D01*
X31057Y37843D01*
X31318Y38017D01*
X31621Y38234D01*
X32012Y38451D01*
X32403Y38711D01*
Y38755D01*
X32359Y38885D01*
X32272Y39015D01*
X32099Y39059D01*
X30146Y38711D01*
X30102D01*
X29972Y38798D01*
X29755Y38972D01*
X29625Y39102D01*
X29495Y39319D01*
X29321Y39536D01*
X29148Y39840D01*
X28931Y40230D01*
X28714Y40708D01*
X28497Y41229D01*
X28236Y41836D01*
X27976Y42574D01*
X27715Y43399D01*
X27629Y43442D01*
X27412Y43616D01*
X27108Y43876D01*
X26761Y44223D01*
X26327Y44657D01*
X25893Y45178D01*
X25459Y45786D01*
X25111Y46480D01*
X25025Y46523D01*
X24851Y46654D01*
X24547Y46827D01*
X24157Y47044D01*
X23766Y47261D01*
X23375Y47435D01*
X22985Y47565D01*
X22681Y47608D01*
Y47956D01*
X22724Y47999D01*
X22855Y48173D01*
X23028Y48433D01*
X23245Y48780D01*
X23462Y49214D01*
X23636Y49735D01*
X23766Y50343D01*
X23809Y51037D01*
Y52035D01*
X23766Y52209D01*
X23636Y52513D01*
X23506Y52860D01*
X23332Y53250D01*
X23115Y53728D01*
X22811Y54249D01*
X22421Y54769D01*
X21987Y55247D01*
X21509Y55768D01*
X20902Y56245D01*
X20207Y56636D01*
X19469Y56983D01*
X18601Y57287D01*
X17647Y57460D01*
X16562Y57504D01*
D02*
G37*
%LPD*%
G36*
X18752Y107676D02*
X18789Y107665D01*
X18820Y107639D01*
X18825Y107629D01*
X18841Y107608D01*
X18856Y107572D01*
X18862Y107530D01*
Y107047D01*
X17218Y106750D01*
Y107249D01*
X17224Y107286D01*
X17239Y107327D01*
X17270Y107374D01*
Y107379D01*
X17281Y107385D01*
X17302Y107405D01*
X17343Y107426D01*
X17390Y107442D01*
X18695Y107681D01*
X18716D01*
X18721D01*
X18726D01*
X18752Y107676D01*
D02*
G37*
G36*
X16511Y107270D02*
X16542Y107255D01*
X16574Y107229D01*
X16579Y107223D01*
X16600Y107203D01*
X16615Y107171D01*
X16620Y107130D01*
Y106641D01*
X14405Y106251D01*
Y106906D01*
X16459Y107275D01*
X16475D01*
X16480D01*
X16485D01*
X16511Y107270D01*
D02*
G37*
G36*
X18758Y103578D02*
X18789Y103563D01*
X18820Y103537D01*
X18825Y103531D01*
X18841Y103511D01*
X18856Y103474D01*
X18862Y103433D01*
Y102892D01*
X14972Y102179D01*
Y102736D01*
X14977Y102767D01*
X14993Y102809D01*
X15019Y102855D01*
Y102861D01*
X15029Y102866D01*
X15050Y102887D01*
X15092Y102913D01*
X15144Y102928D01*
X18695Y103578D01*
X18700Y103583D01*
X18721D01*
X18726D01*
X18732D01*
X18758Y103578D01*
D02*
G37*
G36*
X15840Y94473D02*
X14405Y93813D01*
Y94598D01*
X15840Y94473D01*
D02*
G37*
G36*
X19428Y89543D02*
X17192Y89533D01*
X19428Y90433D01*
Y89543D01*
D02*
G37*
G36*
Y88940D02*
Y88732D01*
X14405D01*
X16345Y89081D01*
X19428Y88940D01*
D02*
G37*
G36*
X15799Y86819D02*
Y87365D01*
X18019Y87479D01*
X15799Y86819D01*
D02*
G37*
G36*
X18752Y83886D02*
X18789Y83870D01*
X18820Y83844D01*
X18825Y83839D01*
X18841Y83818D01*
X18856Y83787D01*
X18862Y83745D01*
Y83246D01*
X17218Y82939D01*
Y83449D01*
X17224Y83480D01*
X17239Y83522D01*
X17265Y83569D01*
Y83574D01*
X17276Y83579D01*
X17296Y83600D01*
X17338Y83626D01*
X17385Y83641D01*
X18695Y83891D01*
X18716D01*
X18721D01*
X18726D01*
X18752Y83886D01*
D02*
G37*
G36*
X18758Y78291D02*
X18789Y78275D01*
X18820Y78249D01*
X18825Y78244D01*
X18841Y78223D01*
X18856Y78187D01*
X18862Y78145D01*
Y77604D01*
X14972Y76892D01*
Y77448D01*
X14977Y77479D01*
X14993Y77521D01*
X15019Y77568D01*
Y77573D01*
X15029Y77578D01*
X15050Y77599D01*
X15092Y77625D01*
X15144Y77641D01*
X18695Y78291D01*
X18700Y78296D01*
X18721D01*
X18726D01*
X18732D01*
X18758Y78291D01*
D02*
G37*
G36*
X19428Y76195D02*
X14405D01*
X19428Y77105D01*
Y76195D01*
D02*
G37*
G36*
X18752Y73860D02*
X18789Y73845D01*
X18820Y73819D01*
X18825Y73813D01*
X18841Y73793D01*
X18856Y73761D01*
X18862Y73720D01*
Y73221D01*
X17218Y72914D01*
Y73423D01*
X17224Y73455D01*
X17239Y73496D01*
X17265Y73543D01*
Y73548D01*
X17276Y73553D01*
X17296Y73574D01*
X17338Y73600D01*
X17385Y73616D01*
X18695Y73865D01*
X18716D01*
X18721D01*
X18726D01*
X18752Y73860D01*
D02*
G37*
G36*
X15976Y71083D02*
X16017Y71073D01*
X16069Y71057D01*
X16132Y71031D01*
X16204Y71000D01*
X16282Y70959D01*
X16288D01*
X16303Y70948D01*
X16334Y70927D01*
X16360Y70917D01*
X16386Y70901D01*
X16423Y70886D01*
X16459Y70865D01*
X16506Y70839D01*
X16558Y70813D01*
X16615Y70782D01*
X16683Y70745D01*
X16756Y70704D01*
X16839Y70662D01*
X16844Y70657D01*
X16860Y70652D01*
X16886Y70636D01*
X16922Y70621D01*
X16958Y70600D01*
X17005Y70574D01*
X17104Y70522D01*
X17208Y70470D01*
X17307Y70418D01*
X17348Y70397D01*
X17385Y70376D01*
X17411Y70361D01*
X17432Y70350D01*
X17437D01*
X17442Y70345D01*
X17458Y70340D01*
X17478Y70329D01*
X17530Y70309D01*
X17598Y70288D01*
X17676Y70262D01*
X17759Y70241D01*
X17853Y70225D01*
X17946Y70220D01*
X17952D01*
X17957D01*
X17978D01*
X17983D01*
X17988D01*
X18019D01*
X18056Y70225D01*
X18102Y70231D01*
X18971Y70376D01*
X18981D01*
X19002Y70387D01*
X19038Y70397D01*
X19085Y70413D01*
X19137Y70439D01*
X19194Y70475D01*
X19246Y70517D01*
X19298Y70574D01*
X19304Y70579D01*
X19319Y70600D01*
X19340Y70636D01*
X19366Y70678D01*
X19387Y70730D01*
X19408Y70787D01*
X19423Y70855D01*
X19428Y70927D01*
Y69659D01*
X14941D01*
X16215Y69877D01*
Y70459D01*
X15138Y70272D01*
X15118D01*
X15107D01*
X15081Y70277D01*
X15050Y70288D01*
X15014Y70314D01*
X15008Y70319D01*
X14993Y70340D01*
X14977Y70371D01*
X14972Y70413D01*
Y70751D01*
X14977Y70782D01*
X14993Y70829D01*
X15019Y70875D01*
Y70881D01*
X15029Y70886D01*
X15055Y70907D01*
X15092Y70933D01*
X15144Y70953D01*
X15851Y71078D01*
X15856D01*
X15872Y71083D01*
X15892Y71089D01*
X15918D01*
X15924D01*
X15944D01*
X15976Y71083D01*
D02*
G37*
G36*
X16822Y54032D02*
X16996Y53988D01*
X17213Y53858D01*
X17733Y53598D01*
X18341Y53250D01*
X18905Y52730D01*
X19426Y52079D01*
X19643Y51731D01*
X19817Y51297D01*
X19903Y50863D01*
X19947Y50386D01*
Y49952D01*
X19903Y49735D01*
X19773Y49388D01*
X19513Y48997D01*
X19339Y48824D01*
X19122Y48607D01*
X18862Y48433D01*
X18515Y48303D01*
X18124Y48129D01*
X17690Y48042D01*
X17169Y47999D01*
X16562Y47956D01*
X13480Y47305D01*
X13437Y47348D01*
X13263Y47435D01*
X13090Y47565D01*
X12829Y47739D01*
X12612Y47999D01*
X12395Y48346D01*
X12222Y48737D01*
X12178Y49214D01*
Y49258D01*
X12222Y49431D01*
X12265Y49648D01*
X12352Y49995D01*
X12482Y50343D01*
X12612Y50733D01*
X12829Y51211D01*
X13046Y51645D01*
X13307Y52079D01*
X13610Y52556D01*
X14001Y52947D01*
X14435Y53337D01*
X14869Y53641D01*
X15433Y53858D01*
X16041Y54032D01*
X16692Y54075D01*
X16735D01*
X16822Y54032D01*
D02*
G37*
G36*
X16692Y41966D02*
X15563Y42097D01*
X15520D01*
X15346D01*
X15086Y42053D01*
X14782Y41966D01*
X14478Y41836D01*
X14131Y41619D01*
X13784Y41359D01*
X13480Y41012D01*
Y40361D01*
X13524Y40317D01*
X13610Y40187D01*
X13741Y40057D01*
X13958Y39883D01*
X14218Y39666D01*
X14565Y39536D01*
X14956Y39406D01*
X15433Y39362D01*
X15563D01*
X15607D01*
X15694D01*
X15824D01*
X15997Y39406D01*
X16431Y39493D01*
X16909Y39666D01*
Y39536D01*
X16692Y38711D01*
X15737D01*
X15694D01*
X15607D01*
X15433D01*
X15260Y38755D01*
X14782Y38798D01*
X14218Y38972D01*
X13610Y39189D01*
X13133Y39536D01*
X12959Y39753D01*
X12786Y40013D01*
X12699Y40317D01*
X12656Y40664D01*
Y40708D01*
X12699Y40751D01*
X12829Y41012D01*
X13003Y41315D01*
X13307Y41706D01*
X13741Y42097D01*
X14261Y42444D01*
X14912Y42661D01*
X15303Y42704D01*
X15737Y42748D01*
X16692D01*
Y41966D01*
D02*
G37*
G36*
X15824Y44050D02*
X16084Y43919D01*
X16301Y43746D01*
X16345Y43659D01*
X16388Y43572D01*
X16345Y43529D01*
X16258Y43485D01*
X16084Y43355D01*
X15780Y43225D01*
X15563Y43182D01*
X15303Y43095D01*
X14999Y42965D01*
X14695Y42878D01*
X14261Y42748D01*
X13827Y42617D01*
X12482Y41489D01*
Y41749D01*
X12525Y42053D01*
X12656Y42444D01*
X12873Y42878D01*
X13046Y43095D01*
X13263Y43312D01*
X13524Y43529D01*
X13871Y43702D01*
X14218Y43876D01*
X14652Y44006D01*
X15173Y44050D01*
X15737Y44093D01*
X15780D01*
X15824Y44050D01*
D02*
G37*
G36*
X16084Y40621D02*
X16171Y40534D01*
X16214Y40361D01*
Y40144D01*
X16171Y40013D01*
X16084Y39883D01*
X15911Y39840D01*
X15563D01*
X15520D01*
X15433Y39927D01*
X15303Y40013D01*
X15260Y40187D01*
Y40664D01*
X15911D01*
X15954D01*
X16084Y40621D01*
D02*
G37*
G36*
X17299Y42704D02*
X17473Y42661D01*
X17907Y42531D01*
X18428Y42357D01*
X18905Y42097D01*
X19339Y41706D01*
X19513Y41489D01*
X19643Y41272D01*
X19730Y40968D01*
X19773Y40664D01*
Y40621D01*
X19730Y40491D01*
X19643Y40274D01*
X19426Y39970D01*
X19122Y39666D01*
X18905Y39493D01*
X18601Y39362D01*
X18298Y39189D01*
X17950Y39015D01*
X17516Y38885D01*
X17039Y38711D01*
Y38928D01*
X17082Y39059D01*
X17126Y39189D01*
X17169Y39406D01*
X17386Y39883D01*
X17690Y40361D01*
Y41142D01*
X17647Y41185D01*
X17603Y41272D01*
X17386Y41532D01*
X17126Y41793D01*
X17082Y41923D01*
X17039Y41966D01*
Y42748D01*
X17082D01*
X17169D01*
X17299Y42704D01*
D02*
G37*
G36*
X13350Y39015D02*
X13524Y38928D01*
X13827Y38798D01*
X14175Y38668D01*
X14609Y38494D01*
X15086Y38364D01*
X15650Y38277D01*
X16214Y38234D01*
Y38191D01*
X16171Y38147D01*
X16084Y38060D01*
X15997Y38017D01*
X15824Y37930D01*
X15563Y37843D01*
X15260Y37757D01*
X15216D01*
X15043Y37800D01*
X14826Y37843D01*
X14522Y37930D01*
X14218Y38060D01*
X13871Y38321D01*
X13524Y38625D01*
X13176Y39059D01*
X13307D01*
X13350Y39015D01*
D02*
G37*
G36*
X15911Y35804D02*
X15867D01*
X15694D01*
X15433D01*
X15173Y35760D01*
X14522Y35673D01*
X14218Y35587D01*
X13958Y35500D01*
X13827D01*
Y35630D01*
X14912Y35977D01*
X15911D01*
Y35804D01*
D02*
G37*
G36*
X16518Y35456D02*
X16562Y35370D01*
X16648Y35283D01*
X16735Y35109D01*
X16822Y34849D01*
X16909Y34545D01*
X16692D01*
X15433Y34849D01*
X15390D01*
X15346D01*
X15086D01*
X14782Y34762D01*
X14392Y34675D01*
X14001Y34502D01*
X13654Y34241D01*
X13393Y33851D01*
X13350Y33634D01*
X13307Y33373D01*
Y33330D01*
X13393Y33200D01*
X13480Y32983D01*
X13654Y32766D01*
X13958Y32505D01*
X14305Y32332D01*
X14826Y32158D01*
X15433Y32115D01*
X15911D01*
X16692Y32245D01*
Y31290D01*
X16562D01*
X16518D01*
X16431D01*
X16258D01*
X16084Y31333D01*
X15563Y31377D01*
X14912Y31550D01*
X14218Y31767D01*
X13567Y32115D01*
X12959Y32592D01*
X12699Y32852D01*
X12482Y33200D01*
Y33460D01*
X12525Y33677D01*
X12656Y33981D01*
X12916Y34328D01*
X13090Y34545D01*
X13307Y34719D01*
X13610Y34892D01*
X13914Y35066D01*
X14305Y35196D01*
X14782Y35326D01*
X15303Y35413D01*
X15911Y35500D01*
X16388D01*
X16431D01*
X16518Y35456D01*
D02*
G37*
G36*
X16084Y33677D02*
X15997Y33547D01*
X15911Y33417D01*
X15737Y33373D01*
X15433D01*
X15390D01*
X15260Y33460D01*
X15129Y33547D01*
X15086Y33720D01*
Y34198D01*
X16084D01*
Y33677D01*
D02*
G37*
G36*
X17299Y35283D02*
X17603Y35196D01*
X17950Y35022D01*
X18428Y34805D01*
X18862Y34502D01*
X19209Y34154D01*
X19513Y33720D01*
X19556Y33460D01*
X19600Y33200D01*
Y33156D01*
X19556Y32983D01*
X19469Y32766D01*
X19296Y32505D01*
X18992Y32201D01*
X18775Y32071D01*
X18515Y31941D01*
X18211Y31767D01*
X17907Y31681D01*
X17473Y31550D01*
X17039Y31464D01*
Y32245D01*
X17082Y32288D01*
X17126Y32375D01*
X17256Y32505D01*
X17386Y32679D01*
X17603Y33026D01*
X17647Y33200D01*
X17690Y33373D01*
X17647Y33417D01*
X17603Y33547D01*
X17473Y33764D01*
X17386Y34024D01*
X17126Y34632D01*
X17082Y34979D01*
X17039Y35326D01*
X17213D01*
X17256D01*
X17299Y35283D01*
D02*
G37*
G36*
X12525Y32375D02*
X12699Y32245D01*
X13003Y32028D01*
X13437Y31767D01*
X14001Y31507D01*
X14739Y31203D01*
X15563Y30899D01*
X16562Y30639D01*
Y30596D01*
X16518Y30509D01*
X16388Y30248D01*
X16171Y29988D01*
X16041Y29858D01*
X15911Y29814D01*
X15737D01*
X15694D01*
X15607D01*
X15433D01*
X15216Y29858D01*
X14695Y29945D01*
X14131Y30118D01*
X13524Y30422D01*
X13003Y30856D01*
X12786Y31116D01*
X12612Y31464D01*
X12525Y31811D01*
X12482Y32245D01*
Y32418D01*
X12525Y32375D01*
D02*
G37*
G36*
X8880Y46740D02*
X9140Y46567D01*
X9270Y46480D01*
X9444Y46306D01*
X9618Y46089D01*
X9791Y45829D01*
X9965Y45525D01*
X10138Y45135D01*
X10312Y44701D01*
X10486Y44180D01*
X10616Y43616D01*
X10746Y42921D01*
X11050Y42270D01*
X12482Y43268D01*
Y43051D01*
X12395Y42921D01*
X12352Y42748D01*
X12265Y42531D01*
X12091Y41966D01*
X12048Y41663D01*
X12005Y41315D01*
Y41055D01*
X12048Y40838D01*
X12135Y40317D01*
X12352Y39710D01*
X12699Y39059D01*
X12916Y38755D01*
X13176Y38408D01*
X13480Y38147D01*
X13871Y37843D01*
X14305Y37626D01*
X14782Y37409D01*
Y36628D01*
X14739D01*
X14695Y36585D01*
X14435Y36411D01*
X14088Y36194D01*
X13654Y35890D01*
X13220Y35543D01*
X12873Y35153D01*
X12612Y34762D01*
X12525Y34545D01*
X12482Y34371D01*
X12439Y34328D01*
X12352Y34285D01*
X12308Y34111D01*
X12222Y33894D01*
X12135Y33547D01*
X12048Y33069D01*
Y32766D01*
X12005Y32418D01*
Y32288D01*
X12048Y32158D01*
Y31984D01*
X12178Y31507D01*
X12439Y30986D01*
X12612Y30682D01*
X12829Y30422D01*
X13133Y30205D01*
X13437Y29988D01*
X13827Y29771D01*
X14305Y29641D01*
X14826Y29554D01*
X15433Y29511D01*
X16084D01*
X16128Y29554D01*
X16214Y29684D01*
X16388Y29858D01*
X16605Y30075D01*
X16779Y30292D01*
X16996Y30465D01*
X17169Y30596D01*
X17343Y30639D01*
X17386D01*
X17473D01*
X17603D01*
X17777Y30682D01*
X18254Y30769D01*
X18818Y30899D01*
X19383Y31160D01*
X19947Y31507D01*
X20424Y32028D01*
X20641Y32375D01*
X20771Y32722D01*
Y33156D01*
X20685Y33373D01*
X20554Y33720D01*
X20424Y33937D01*
X20207Y34154D01*
X19990Y34371D01*
X19686Y34588D01*
X19339Y34849D01*
X18905Y35066D01*
X18428Y35326D01*
X17820Y35543D01*
X17169Y35760D01*
X16388Y35977D01*
Y36021D01*
X16345Y36064D01*
X16258Y36151D01*
X16171Y36238D01*
X15997Y36324D01*
X15737Y36368D01*
X15433Y36455D01*
Y37409D01*
X15477D01*
X15563D01*
X15694Y37453D01*
X15867Y37540D01*
X16128Y37670D01*
X16431Y37843D01*
X16779Y38060D01*
X17213Y38408D01*
X17256D01*
X17386Y38451D01*
X17560Y38494D01*
X17777Y38538D01*
X18081Y38625D01*
X18384Y38755D01*
X19079Y39015D01*
X19773Y39362D01*
X20077Y39623D01*
X20381Y39840D01*
X20598Y40144D01*
X20771Y40447D01*
X20902Y40795D01*
X20945Y41142D01*
Y41229D01*
X20902Y41446D01*
X20728Y41749D01*
X20598Y41966D01*
X20424Y42140D01*
X20207Y42357D01*
X19903Y42574D01*
X19556Y42748D01*
X19166Y42965D01*
X18645Y43138D01*
X18081Y43312D01*
X17430Y43442D01*
X16692Y43572D01*
Y43702D01*
X16648Y43833D01*
X16518Y44006D01*
X16388Y44136D01*
X16171Y44267D01*
X15867Y44353D01*
X15433Y44397D01*
Y44527D01*
X18167Y44874D01*
X18211D01*
X18384D01*
X18601D01*
X18905Y44831D01*
X19296Y44787D01*
X19730Y44701D01*
X20641Y44440D01*
X21162Y44267D01*
X21639Y44050D01*
X22117Y43789D01*
X22594Y43442D01*
X23028Y43051D01*
X23419Y42617D01*
X23723Y42097D01*
X23983Y41489D01*
Y40925D01*
X23940Y40795D01*
Y40534D01*
X23853Y40144D01*
X23809Y39840D01*
X23766Y39536D01*
X23723Y39189D01*
X23679Y38755D01*
X23592Y38277D01*
X23506Y37757D01*
Y37019D01*
X23549Y36541D01*
X23592Y35977D01*
X23723Y35239D01*
X23853Y34415D01*
X24070Y33503D01*
X24330Y32549D01*
Y32505D01*
X24287Y32375D01*
X24200Y32201D01*
X24070Y31984D01*
X23940Y31681D01*
X23723Y31377D01*
X23419Y31030D01*
X23115Y30726D01*
X22681Y30379D01*
X22204Y30031D01*
X21639Y29728D01*
X20988Y29424D01*
X20251Y29207D01*
X19383Y29033D01*
X18428Y28903D01*
X17343Y28860D01*
X17299D01*
X17169D01*
X16996D01*
X16735Y28903D01*
X16431D01*
X16084Y28990D01*
X15303Y29120D01*
X14435Y29380D01*
X13480Y29728D01*
X12612Y30248D01*
X12222Y30596D01*
X11831Y30943D01*
X11788Y30986D01*
X11701Y31030D01*
X11527Y31073D01*
X11397Y31116D01*
X11354D01*
X11267Y31073D01*
X11093Y30943D01*
X10876Y30726D01*
X10746Y30552D01*
X10616Y30335D01*
X10486Y30075D01*
X10312Y29728D01*
X10138Y29380D01*
X9965Y28946D01*
X9791Y28426D01*
X9574Y27861D01*
X9531Y27818D01*
X9444Y27775D01*
X9314Y27688D01*
X9140Y27558D01*
X8880Y27427D01*
X8619Y27341D01*
X8316Y27297D01*
X7968Y27254D01*
X7925D01*
X7882D01*
X7751Y27297D01*
X7621Y27384D01*
X7448Y27471D01*
X7231Y27644D01*
X6970Y27905D01*
X6710Y28209D01*
X6449Y28643D01*
X6146Y29120D01*
X5798Y29771D01*
X5495Y30509D01*
X5147Y31420D01*
X4800Y32418D01*
X4453Y33634D01*
X4279Y34285D01*
X4106Y34979D01*
Y35022D01*
X4062Y35066D01*
X3932Y35283D01*
X3759Y35673D01*
X3542Y36107D01*
X3325Y36585D01*
X3151Y37106D01*
X3021Y37626D01*
X2977Y38060D01*
Y38104D01*
X3021Y38191D01*
X3064Y38364D01*
X3238Y38625D01*
X3455Y39059D01*
X3628Y39319D01*
X3802Y39623D01*
X4019Y39970D01*
X4279Y40361D01*
X4583Y40795D01*
X4930Y41315D01*
Y41359D01*
X5017Y41532D01*
X5061Y41836D01*
X5191Y42183D01*
X5321Y42574D01*
X5495Y43051D01*
X5885Y44050D01*
X6363Y45048D01*
X6623Y45525D01*
X6883Y45916D01*
X7187Y46263D01*
X7491Y46567D01*
X7795Y46740D01*
X8142Y46784D01*
X8619D01*
X8706D01*
X8880Y46740D01*
D02*
G37*
G36*
X13393Y26386D02*
X13654Y26256D01*
X14088Y26125D01*
X14652Y25952D01*
X15346Y25735D01*
X16171Y25605D01*
X17126Y25474D01*
X18167Y25431D01*
X18515D01*
X18601Y25388D01*
X18688Y25344D01*
X18818Y25214D01*
X18949Y24997D01*
X19122Y24693D01*
X19296Y24259D01*
X19469Y23695D01*
Y22653D01*
X19426Y22567D01*
X19339Y22393D01*
X19252Y22176D01*
X19035Y21699D01*
X18688Y21091D01*
X18211Y20483D01*
X17647Y20006D01*
X17343Y19789D01*
X16996Y19615D01*
X16605Y19529D01*
X16214Y19485D01*
X15737D01*
X15694D01*
X15563Y19529D01*
X15390Y19615D01*
X15129Y19746D01*
X14826Y19876D01*
X14522Y20049D01*
X13784Y20483D01*
X13090Y21091D01*
X12742Y21438D01*
X12439Y21829D01*
X12178Y22263D01*
X12005Y22740D01*
X11874Y23261D01*
X11831Y23825D01*
Y24693D01*
X11874Y24823D01*
X11918Y25040D01*
X12005Y25301D01*
X12178Y25561D01*
X12439Y25865D01*
X12829Y26169D01*
X13307Y26429D01*
X13350D01*
X13393Y26386D01*
D02*
G37*
G36*
X2543Y37453D02*
X2587Y37323D01*
X2630Y37106D01*
X2717Y36845D01*
X2804Y36541D01*
X3021Y35804D01*
X3325Y34936D01*
X3628Y33981D01*
X3976Y32983D01*
X4366Y31941D01*
X4800Y30856D01*
X5234Y29858D01*
X5712Y28903D01*
X6189Y28035D01*
X6666Y27297D01*
X6927Y26993D01*
X7187Y26733D01*
X7404Y26516D01*
X7665Y26386D01*
X7925Y26299D01*
X8142Y26256D01*
X8185D01*
X8229D01*
X8359Y26299D01*
X8533Y26342D01*
X8706Y26429D01*
X8967Y26516D01*
X9270Y26690D01*
X9574Y26907D01*
X9921D01*
Y26776D01*
X9878Y26733D01*
X9835Y26559D01*
X9704Y26299D01*
X9574Y25908D01*
X9401Y25388D01*
X9227Y24693D01*
X9097Y23869D01*
X8967Y22870D01*
Y22784D01*
X9010Y22567D01*
X9053Y22263D01*
X9184Y21829D01*
X9314Y21308D01*
X9487Y20744D01*
X9748Y20136D01*
X10052Y19485D01*
X10442Y18834D01*
X10876Y18227D01*
X11397Y17662D01*
X12005Y17142D01*
X12699Y16708D01*
X13524Y16404D01*
X14435Y16187D01*
X15433Y16100D01*
X2500D01*
Y37540D01*
X2543Y37453D01*
D02*
G37*
%LPC*%
G36*
X11527Y39362D02*
X11484D01*
X11397Y39319D01*
X11223Y39276D01*
X11050Y39189D01*
X10876Y39059D01*
X10703Y38885D01*
X10616Y38668D01*
X10572Y38408D01*
X10876Y38234D01*
X10920D01*
X11050Y38277D01*
X11180Y38451D01*
X11223Y38538D01*
Y38711D01*
X11527D01*
X11571D01*
X11614Y38668D01*
X11874Y38494D01*
X12091Y38191D01*
X12135Y37974D01*
X12178Y37757D01*
X11701Y38060D01*
X11397D01*
X11354D01*
X11223Y38017D01*
X11093Y37930D01*
X11050Y37757D01*
Y37279D01*
X11831Y37106D01*
Y37149D01*
X11918Y37236D01*
X12048Y37409D01*
X12178Y37496D01*
X12352Y37583D01*
Y37019D01*
X12308Y36715D01*
X12222Y36368D01*
X12091Y35977D01*
X11874Y35630D01*
X11614Y35283D01*
X11223Y34979D01*
X11050D01*
Y35066D01*
X11006Y35239D01*
X10920Y35413D01*
X10833Y35500D01*
X10746D01*
X10572Y35153D01*
Y34805D01*
X10616Y34719D01*
X10789Y34545D01*
X10876Y34458D01*
X11050Y34371D01*
X11397D01*
X11484D01*
X11657Y34415D01*
X11918Y34545D01*
X12222Y34719D01*
X12482Y35066D01*
X12612Y35326D01*
X12742Y35587D01*
X12873Y35934D01*
X12916Y36324D01*
X13003Y36758D01*
Y37626D01*
X12916Y37930D01*
X12829Y38321D01*
X12656Y38711D01*
X12395Y39059D01*
X12005Y39276D01*
X11788Y39319D01*
X11527Y39362D01*
D02*
G37*
G36*
X9748Y37409D02*
X9574D01*
X9531D01*
X9444Y37366D01*
X9270D01*
X9097Y37323D01*
X8923Y37236D01*
X8750Y37192D01*
X8663Y37062D01*
X8619Y36975D01*
Y36932D01*
X8663Y36802D01*
X8750Y36672D01*
X8967Y36628D01*
X9791D01*
X9835D01*
X9965Y36672D01*
X10052Y36802D01*
X10095Y36975D01*
Y37149D01*
X10052Y37279D01*
X9878Y37366D01*
X9748Y37409D01*
D02*
G37*
G36*
X11527Y36628D02*
X11050D01*
X11006D01*
X10920Y36585D01*
X10789Y36498D01*
X10746Y36281D01*
Y36238D01*
X10789Y36151D01*
X10963Y35977D01*
X11050Y35890D01*
X11223Y35804D01*
X12005Y35977D01*
Y36194D01*
X11961Y36281D01*
X11788Y36455D01*
X11701Y36541D01*
X11527Y36628D01*
D02*
G37*
G36*
X8967Y44223D02*
X8793D01*
X8750D01*
X8619Y44180D01*
X8489Y44093D01*
X8446Y43919D01*
X8619Y43572D01*
X8576Y43529D01*
X8402Y43355D01*
X8185Y43138D01*
X7882Y42791D01*
X7491Y42444D01*
X7100Y42010D01*
X6189Y41055D01*
X5278Y40100D01*
X4887Y39666D01*
X4540Y39232D01*
X4193Y38885D01*
X3976Y38581D01*
X3802Y38364D01*
X3759Y38234D01*
X3628Y37409D01*
Y37323D01*
X3672Y37192D01*
Y37062D01*
X3802Y36628D01*
X4062Y36021D01*
X4236Y35673D01*
X4496Y35239D01*
X4757Y34805D01*
X5104Y34371D01*
X5495Y33851D01*
X5972Y33286D01*
X6536Y32722D01*
X7144Y32115D01*
X7187Y32071D01*
X7274Y31984D01*
X7404Y31811D01*
X7534Y31637D01*
X7882Y31160D01*
X8012Y30899D01*
X8142Y30639D01*
X8099Y30596D01*
X8055Y30465D01*
X8012Y30292D01*
X7968Y30162D01*
X8012D01*
X8055D01*
X8099Y30075D01*
X8142Y29988D01*
X8185D01*
X8272Y30031D01*
X8576Y30205D01*
X8836Y30509D01*
X8923Y30682D01*
X8967Y30943D01*
Y30986D01*
X8923Y31073D01*
X8836Y31203D01*
X8750Y31420D01*
X8619Y31637D01*
X8489Y31941D01*
X8359Y32288D01*
X8229Y32679D01*
X7968Y33590D01*
X7708Y34632D01*
X7534Y35804D01*
X7491Y37106D01*
Y37496D01*
X7534Y37757D01*
Y38104D01*
X7578Y38494D01*
X7665Y38972D01*
X7751Y39449D01*
X7968Y40447D01*
X8316Y41532D01*
X8793Y42617D01*
X9097Y43095D01*
X9444Y43572D01*
Y43616D01*
X9401Y43659D01*
X9270Y43919D01*
X9140Y44136D01*
X9053Y44180D01*
X8967Y44223D01*
D02*
G37*
%LPD*%
G36*
X7361Y40925D02*
X7317Y40751D01*
X7274Y40447D01*
X7231Y40144D01*
X7144Y39796D01*
X7057Y39493D01*
X6970Y39319D01*
X6840Y39232D01*
X7014Y38885D01*
Y37366D01*
X6927Y37323D01*
X6840Y37279D01*
X7014Y36975D01*
Y35977D01*
X7057Y35717D01*
Y35370D01*
X7144Y34936D01*
X7231Y34371D01*
X7317Y33677D01*
X7491Y32896D01*
X7448Y32939D01*
X7274Y33026D01*
X7057Y33200D01*
X6797Y33417D01*
X6493Y33677D01*
X6276Y34024D01*
X6102Y34415D01*
X6059Y34849D01*
X6189D01*
Y34892D01*
X6146Y35066D01*
X6102Y35326D01*
X6059Y35543D01*
Y35804D01*
X5712D01*
Y34979D01*
X5364D01*
X5321D01*
X5278Y35022D01*
X5191Y35066D01*
X5061Y35196D01*
X4930Y35413D01*
X4800Y35760D01*
X4670Y36194D01*
X4583Y36802D01*
Y37062D01*
X4627Y37106D01*
X4713D01*
X4583Y37409D01*
Y37713D01*
X4627Y37887D01*
X4670Y38104D01*
X4757Y38364D01*
X4930Y38668D01*
X5104Y38928D01*
X5364Y39232D01*
X5712D01*
Y38408D01*
X6059D01*
Y38668D01*
X6102Y38798D01*
X6146Y39232D01*
X6276Y39710D01*
X6449Y40187D01*
X6666Y40621D01*
X6797Y40751D01*
X6970Y40881D01*
X7144Y40968D01*
X7361Y41012D01*
Y40925D01*
D02*
G37*
G36*
X5712Y34805D02*
X5842Y34719D01*
X5885Y34545D01*
Y34371D01*
X5842D01*
X5712Y34415D01*
X5581Y34502D01*
X5538Y34675D01*
Y34849D01*
X5581D01*
X5712Y34805D01*
D02*
G37*
%LPC*%
G36*
X5885Y38060D02*
X5538D01*
Y37670D01*
X5451Y37409D01*
X5408Y37323D01*
X5364Y37279D01*
X5538Y36975D01*
Y36151D01*
X5885D01*
Y37019D01*
X5929Y37062D01*
X5972Y37106D01*
X6059D01*
X6015Y37149D01*
X5972Y37323D01*
X5929Y37583D01*
X5885Y37800D01*
Y38060D01*
D02*
G37*
%LPD*%
M02*
